<?xml version="1.0" encoding="UTF-8" standalone="no"?>
<svg
   xmlns:dc="http://purl.org/dc/elements/1.1/"
   xmlns:cc="http://creativecommons.org/ns#"
   xmlns:rdf="http://www.w3.org/1999/02/22-rdf-syntax-ns#"
   xmlns:svg="http://www.w3.org/2000/svg"
   xmlns="http://www.w3.org/2000/svg"
   viewBox="0 0 1587.4 1587.4"
   height="1587.4"
   width="1587.4"
   xml:space="preserve"
   id="svg2"
   version="1.1"><metadata
     id="metadata8"><rdf:RDF><cc:Work
         rdf:about=""><dc:format>image/svg+xml</dc:format><dc:type
           rdf:resource="http://purl.org/dc/dcmitype/StillImage" /></cc:Work></rdf:RDF></metadata><defs
     id="defs6"><clipPath
       id="clipPath18"
       clipPathUnits="userSpaceOnUse"><path
         id="path16"
         d="M 0,1190.551 H 1190.551 V 0 H 0 Z" /></clipPath></defs><g
     transform="matrix(1.3333333,0,0,-1.3333333,0,1587.4)"
     id="g10"><g
       id="g12"><g
         clip-path="url(#clipPath18)"
         id="g14"><g
           transform="translate(988.5078,757.5985)"
           id="g20"><path
             id="path22"
             style="fill:#427ec7;fill-opacity:1;fill-rule:nonzero;stroke:none"
             d="m 0,0 c 0,170.711 -116.355,315.112 -276.484,362.956 l -493.255,-467.211 c 35.458,-120.495 130.843,-216.543 252.973,-256.041 -0.893,3.94 -1.729,7.899 -2.497,11.877 -7.866,41.136 -8.67,83.411 -2.118,125.104 3.056,19.954 8.233,39.713 14.298,58.952 5.41,17.291 11.735,35.183 18.979,51.795 10.992,25.237 25.038,49.305 37.812,73.648 3.102,5.432 6.048,10.946 8.832,16.533 -0.652,-0.024 -1.303,-0.042 -1.953,-0.049 -8.684,-0.073 -17.059,1.415 -24.683,3.856 -7.645,2.443 -14.579,5.807 -20.932,9.609 -6.352,3.816 -12.129,8.095 -17.501,12.619 -10.732,9.067 -19.859,19.114 -28.093,29.563 -8.217,10.465 -15.503,21.379 -22.143,32.554 -3.727,6.272 -1.664,14.377 4.608,18.104 5.843,3.472 13.278,1.919 17.281,-3.381 l 0.046,-0.063 c 7.26,-9.592 14.988,-18.725 23.223,-27.081 8.227,-8.339 16.983,-15.939 26.142,-22.031 4.571,-3.04 9.234,-5.701 13.89,-7.808 4.653,-2.102 9.298,-3.656 13.72,-4.488 4.426,-0.842 8.596,-0.969 12.404,-0.44 3.812,0.553 7.288,1.741 10.633,3.551 7.348,2.34 13.109,9.688 17.335,20.619 6.566,26.86 9.39,54.618 7.859,82.601 -0.865,24.442 -4.372,48.789 -8.655,73.115 -1.226,6.659 3.233,13.053 9.907,14.196 5.366,0.923 10.519,-1.835 12.888,-6.431 6.057,-11.789 11.269,-24.064 15.723,-36.709 2.341,-6.603 4.448,-13.301 6.315,-20.072 0.244,-0.718 0.462,-1.439 0.652,-2.163 l 0.14,-0.56 c 0.538,-2.111 1.055,-4.229 1.557,-6.354 2.313,-9.563 4.148,-19.251 5.481,-29.01 0.056,-0.406 0.111,-0.814 0.166,-1.221 0.02,-0.157 0.042,-0.314 0.062,-0.472 0.17,-1.28 0.335,-2.563 0.488,-3.851 0.405,-3.44 0.746,-6.907 1.011,-10.402 2.166,-27.139 0.418,-54.582 -5.717,-81.152 -6.152,-27.764 -17.232,-54.199 -30.28,-79.322 -1.245,-2.437 -3.099,-6.029 -4.348,-8.417 -10.587,-20.398 -23.072,-41.6 -32.995,-62.302 -7.792,-16.308 -14.881,-33.633 -21.392,-50.492 -6.052,-15.24 -11.588,-31.19 -15.912,-46.99 -12.122,-43.345 -16.709,-88.878 -17.5,-134.161 31.83,-8.069 65.235,-12.371 99.679,-12.371 64.333,0 125.049,14.987 178.626,41.552 -44.798,28.754 -84.171,65.977 -116.161,108.525 -34.756,46.533 -52.064,74.403 -69.491,129.342 0,0 36.181,60.216 42.962,91.125 2.314,-3.093 18.142,-83.869 28.715,-114.315 25.846,-78.472 74.593,-147.849 135.644,-203.076 C -77.061,-260.422 0,-138.924 0,0" /></g><g
           transform="translate(596.1533,1137.392)"
           id="g24"><path
             id="path26"
             style="fill:#e6ba2a;fill-opacity:1;fill-rule:nonzero;stroke:none"
             d="m 0,0 c -216.69,0 -392.354,-170.039 -392.354,-379.793 0,-17.44 1.222,-34.603 3.573,-51.419 L 61.556,-4.654 C 41.501,-1.595 20.943,0 0,0" /></g><g
           transform="translate(259.5083,52.226)"
           id="g28"><path
             id="path30"
             style="fill:#427ec7;fill-opacity:1;fill-rule:nonzero;stroke:none"
             d="M 0,0 C -1.914,0 -3.47,1.557 -3.47,3.47 V 83.495 L -42.599,16.478 c -0.619,-1.062 -1.768,-1.721 -2.997,-1.721 h -5.803 c -1.226,0 -2.372,0.656 -2.992,1.713 L -93.525,83.067 V 3.47 c 0,-1.913 -1.557,-3.47 -3.47,-3.47 h -11.773 c -1.914,0 -3.47,1.557 -3.47,3.47 v 116.064 c 0,1.913 1.556,3.47 3.47,3.47 h 10.115 c 1.228,0 2.375,-0.658 2.995,-1.718 l 47.394,-80.914 46.921,80.902 c 0.619,1.068 1.769,1.73 3.002,1.73 h 10.114 c 1.914,0 3.47,-1.557 3.47,-3.47 V 3.47 C 15.243,1.557 13.687,0 11.773,0 Z" /></g><g
           transform="translate(271.2812,177.1576)"
           id="g32"><path
             id="path34"
             style="fill:#427ec8;fill-opacity:1;fill-rule:nonzero;stroke:none"
             d="m 0,0 h -10.114 c -1.918,0 -3.707,-1.03 -4.67,-2.689 l -45.261,-78.041 -45.724,78.06 c -0.963,1.647 -2.748,2.67 -4.657,2.67 h -10.115 c -2.977,0 -5.398,-2.421 -5.398,-5.397 v -116.065 c 0,-2.976 2.421,-5.397 5.398,-5.397 h 11.773 c 2.976,0 5.398,2.421 5.398,5.397 v 72.511 l 35.544,-60.489 c 0.965,-1.643 2.748,-2.664 4.654,-2.664 h 5.803 c 1.912,0 3.698,1.026 4.662,2.677 l 35.536,60.864 v -72.899 c 0,-2.976 2.421,-5.397 5.398,-5.397 H 0 c 2.977,0 5.398,2.421 5.398,5.397 V -5.397 C 5.398,-2.421 2.977,0 0,0 m 0,-3.855 c 0.852,0 1.542,-0.691 1.542,-1.542 v -116.065 c 0,-0.851 -0.69,-1.542 -1.542,-1.542 h -11.773 c -0.852,0 -1.542,0.691 -1.542,1.542 v 81.452 c 0,0.961 -0.775,1.545 -1.56,1.545 -0.5,0 -1.004,-0.238 -1.313,-0.767 l -39.849,-68.25 c -0.276,-0.474 -0.783,-0.765 -1.332,-0.765 h -5.803 c -0.547,0 -1.053,0.289 -1.329,0.761 l -39.854,67.822 c -0.31,0.527 -0.812,0.764 -1.312,0.764 -0.784,0 -1.559,-0.584 -1.559,-1.544 v -81.018 c 0,-0.851 -0.691,-1.542 -1.542,-1.542 h -11.773 c -0.852,0 -1.542,0.691 -1.542,1.542 V -5.397 c 0,0.851 0.69,1.542 1.542,1.542 h 10.115 c 0.547,0 1.054,-0.291 1.33,-0.763 l 47.73,-81.487 c 0.298,-0.508 0.815,-0.763 1.331,-0.763 0.518,0 1.036,0.257 1.333,0.768 l 47.254,81.476 c 0.276,0.476 0.784,0.769 1.334,0.769 H 0" /></g><g
           transform="translate(378.5044,158.3422)"
           id="g36"><path
             id="path38"
             style="fill:#427ec7;fill-opacity:1;fill-rule:nonzero;stroke:none"
             d="m 0,0 c -8.534,0 -16.362,-1.945 -23.269,-5.782 -6.872,-3.819 -12.341,-9.184 -16.257,-15.948 -3.926,-6.782 -5.916,-14.481 -5.916,-22.884 0,-8.406 1.99,-16.105 5.916,-22.883 3.914,-6.764 9.383,-12.13 16.257,-15.948 6.907,-3.837 14.735,-5.783 23.269,-5.783 8.529,0 16.327,1.944 23.176,5.777 6.814,3.814 12.228,9.177 16.091,15.937 3.877,6.785 5.843,14.491 5.843,22.9 0,8.407 -1.966,16.112 -5.843,22.901 -3.866,6.762 -9.28,12.124 -16.092,15.937 C 16.327,-1.943 8.529,0 0,0 m 0,-107.111 c -12.034,0 -23.112,2.739 -32.928,8.14 -9.853,5.422 -17.661,12.967 -23.206,22.426 -5.542,9.448 -8.352,20.192 -8.352,31.931 0,11.739 2.81,22.483 8.352,31.932 5.546,9.459 13.353,17.004 23.207,22.426 9.814,5.401 20.892,8.139 32.927,8.139 12.029,0 23.052,-2.711 32.762,-8.058 9.741,-5.368 17.519,-12.911 23.119,-22.419 5.6,-9.509 8.439,-20.281 8.439,-32.02 0,-11.741 -2.839,-22.514 -8.439,-32.021 -5.6,-9.511 -13.378,-17.053 -23.119,-22.418 C 23.058,-104.4 12.035,-107.111 0,-107.111" /></g><g
           transform="translate(378.5039,71.0433)"
           id="g40"><path
             id="path42"
             style="fill:#427ec8;fill-opacity:1;fill-rule:nonzero;stroke:none"
             d="m 0,0 c -8.203,0 -15.717,1.863 -22.332,5.538 -6.564,3.648 -11.788,8.771 -15.524,15.229 -3.754,6.482 -5.658,13.856 -5.658,21.918 0,8.059 1.904,15.433 5.657,21.918 3.739,6.459 8.962,11.583 15.525,15.229 6.615,3.675 14.129,5.538 22.332,5.538 8.197,0 15.677,-1.86 22.234,-5.53 6.502,-3.64 11.67,-8.758 15.36,-15.212 3.708,-6.492 5.589,-13.876 5.589,-21.943 0,-8.07 -1.881,-15.453 -5.589,-21.945 C 33.906,14.289 28.738,9.171 22.234,5.529 15.677,1.86 8.197,0 0,0 m 0,107.109 c -12.364,0 -23.755,-2.818 -33.856,-8.378 -10.163,-5.591 -18.218,-13.377 -23.941,-23.139 -5.718,-9.748 -8.617,-20.821 -8.617,-32.907 0,-12.087 2.899,-23.159 8.617,-32.908 5.723,-9.761 13.778,-17.547 23.941,-23.138 10.102,-5.56 21.493,-8.379 33.856,-8.379 12.364,0 23.7,2.792 33.693,8.298 10.048,5.534 18.072,13.315 23.85,23.128 5.777,9.806 8.706,20.909 8.706,32.999 0,12.086 -2.929,23.189 -8.706,32.999 C 51.765,85.493 43.741,93.275 33.694,98.813 23.696,104.318 12.36,107.109 0,107.109 M 0,-3.856 c 8.864,0 16.979,2.026 24.118,6.021 7.123,3.988 12.783,9.595 16.823,16.663 4.046,7.081 6.098,15.109 6.098,23.857 0,8.746 -2.052,16.773 -6.098,23.857 -4.042,7.07 -9.702,12.677 -16.823,16.663 C 16.979,87.2 8.864,89.227 0,89.227 c -8.866,0 -17.01,-2.028 -24.205,-6.025 -7.18,-3.989 -12.896,-9.597 -16.989,-16.668 -4.098,-7.079 -6.176,-15.102 -6.176,-23.849 0,-8.749 2.078,-16.773 6.176,-23.849 4.09,-7.07 9.807,-12.678 16.989,-16.668 C -17.01,-1.829 -8.866,-3.856 0,-3.856 m 0,107.11 c 11.702,0 22.412,-2.631 31.833,-7.818 9.433,-5.2 16.965,-12.503 22.388,-21.709 5.423,-9.208 8.172,-19.653 8.172,-31.042 0,-11.392 -2.749,-21.836 -8.172,-31.042 C 48.798,2.434 41.266,-4.87 31.833,-10.065 22.416,-15.254 11.706,-17.885 0,-17.885 c -11.706,0 -22.471,2.659 -31.998,7.903 v -0.001 c -9.545,5.253 -17.106,12.557 -22.473,21.712 -5.366,9.149 -8.087,19.564 -8.087,30.956 0,11.392 2.721,21.807 8.088,30.957 5.366,9.154 12.928,16.46 22.472,21.712 9.526,5.242 20.292,7.9 31.998,7.9" /></g><g
           transform="translate(534.4624,106.4213)"
           id="g44"><path
             id="path46"
             style="fill:#427ec7;fill-opacity:1;fill-rule:nonzero;stroke:none"
             d="m 0,0 c 10.606,0 18.727,2.294 24.136,6.818 5.3,4.432 7.876,10.558 7.876,18.728 0,8.382 -2.572,14.585 -7.862,18.964 C 18.736,48.987 10.611,51.258 0,51.258 H -27.37 V 0 Z m 38.437,-54.194 c -2.556,0 -4.966,1.243 -6.448,3.326 L 7.952,-17.067 C 5.498,-17.278 2.925,-17.386 0.331,-17.386 H -27.37 v -33.366 c 0,-1.898 -1.544,-3.442 -3.442,-3.442 h -12.326 c -1.898,0 -3.442,1.544 -3.442,3.442 V 65.366 c 0,1.899 1.544,3.443 3.442,3.443 H 0.331 c 15.581,0 28.048,-3.845 37.055,-11.427 C 46.567,49.646 51.222,38.936 51.222,25.546 51.222,15.77 48.68,7.353 43.667,0.527 39.496,-5.152 33.779,-9.565 26.67,-12.597 l 25.763,-36.157 c 0.751,-1.055 0.849,-2.425 0.256,-3.575 -0.593,-1.15 -1.766,-1.865 -3.06,-1.865 z" /></g><g
           transform="translate(509.0205,155.7504)"
           id="g48"><path
             id="path50"
             style="fill:#427ec8;fill-opacity:1;fill-rule:nonzero;stroke:none"
             d="m 0,0 h 25.441 c 10.152,0 17.864,-2.121 22.923,-6.305 4.886,-4.045 7.161,-9.599 7.161,-17.478 0,-7.668 -2.282,-13.15 -7.184,-17.248 -5.053,-4.227 -12.758,-6.369 -22.9,-6.369 L 0,-47.4 Z m 25.773,21.408 h -43.469 c -2.961,0 -5.37,-2.409 -5.37,-5.371 v -116.118 c 0,-2.962 2.409,-5.371 5.37,-5.371 h 12.325 c 2.962,0 5.371,2.409 5.371,5.371 v 31.438 h 25.773 c 2.261,0 4.503,0.08 6.684,0.238 l 23.402,-32.909 c 1.843,-2.591 4.841,-4.138 8.019,-4.138 h 11.193 c 2.019,0 3.849,1.115 4.774,2.91 0.925,1.795 0.772,3.933 -0.4,5.577 L 55.04,-62.712 c 6.432,3.113 11.679,7.399 15.623,12.769 5.261,7.164 7.929,15.964 7.929,26.16 0,13.985 -4.886,25.192 -14.522,33.31 -9.366,7.884 -22.25,11.881 -38.297,11.881 M -2.341,-51.257 h 27.782 c 11.072,0 19.608,2.445 25.374,7.268 5.765,4.821 8.566,11.429 8.566,20.206 0,8.992 -2.8,15.68 -8.56,20.449 -5.768,4.771 -14.307,7.189 -25.38,7.189 H -2.341 c -0.837,0 -1.515,-0.677 -1.515,-1.513 v -52.084 c 0,-0.836 0.678,-1.515 1.515,-1.515 m 28.114,68.809 c 15.114,0 27.163,-3.692 35.813,-10.974 8.726,-7.351 13.15,-17.566 13.15,-30.361 0,-9.357 -2.416,-17.39 -7.18,-23.877 -4.059,-5.527 -9.648,-9.78 -16.649,-12.681 -0.904,-0.375 -1.233,-1.485 -0.665,-2.282 l 26.063,-36.579 c 0.714,-1.003 -0.003,-2.394 -1.234,-2.394 H 63.878 c -1.937,0 -3.753,0.938 -4.876,2.516 l -24.175,33.995 c -0.285,0.402 -0.745,0.634 -1.233,0.634 -0.045,0 -0.09,-0.002 -0.135,-0.006 -2.488,-0.219 -5.065,-0.33 -7.686,-0.33 H -2.341 c -0.837,0 -1.515,-0.678 -1.515,-1.515 v -33.779 c 0,-0.837 -0.678,-1.515 -1.515,-1.515 h -12.325 c -0.836,0 -1.514,0.678 -1.514,1.515 V 16.037 c 0,0.837 0.678,1.515 1.514,1.515 h 43.469" /></g><g
           transform="translate(634.7852,52.2269)"
           id="g52"><path
             id="path54"
             style="fill:#427ec7;fill-opacity:1;fill-rule:nonzero;stroke:none"
             d="m 0,0 c -2.771,0 -5.023,2.253 -5.023,5.023 v 112.956 c 0,2.771 2.252,5.024 5.023,5.024 h 76.479 c 2.771,0 5.024,-2.253 5.024,-5.024 v -7.503 c 0,-2.771 -2.253,-5.024 -5.024,-5.024 H 15.354 c -0.643,0 -1.167,-0.524 -1.167,-1.169 V 72.274 c 0,-0.643 0.524,-1.168 1.167,-1.168 h 53.83 c 2.77,0 5.024,-2.252 5.024,-5.023 v -7.339 c 0,-2.77 -2.254,-5.023 -5.024,-5.023 h -53.83 c -0.643,0 -1.167,-0.525 -1.167,-1.169 V 18.72 c 0,-0.645 0.524,-1.169 1.167,-1.169 h 63.613 c 2.77,0 5.023,-2.253 5.023,-5.024 V 5.023 C 83.99,2.253 81.737,0 78.967,0 Z" /></g><g
           transform="translate(711.2646,177.1586)"
           id="g56"><path
             id="path58"
             style="fill:#427ec8;fill-opacity:1;fill-rule:nonzero;stroke:none"
             d="m 0,0 h -76.479 c -3.834,0 -6.953,-3.119 -6.953,-6.952 v -112.956 c 0,-3.833 3.119,-6.952 6.953,-6.952 H 2.487 c 3.833,0 6.952,3.119 6.952,6.952 v 7.504 c 0,3.833 -3.119,6.952 -6.952,6.952 h -62.852 v 32.312 h 53.069 c 3.834,0 6.952,3.119 6.952,6.952 v 7.338 c 0,3.834 -3.118,6.953 -6.952,6.953 h -53.069 v 30.489 H 0 c 3.833,0 6.952,3.119 6.952,6.952 v 7.504 C 6.952,-3.119 3.833,0 0,0 m 0,-3.856 c 1.71,0 3.096,-1.386 3.096,-3.096 v -7.504 c 0,-1.71 -1.386,-3.097 -3.096,-3.097 h -61.125 c -1.71,0 -3.096,-1.385 -3.096,-3.095 v -32.009 c 0,-1.71 1.386,-3.096 3.096,-3.096 h 53.829 c 1.71,0 3.097,-1.386 3.097,-3.097 v -7.338 c 0,-1.709 -1.387,-3.095 -3.097,-3.095 h -53.829 c -1.71,0 -3.096,-1.387 -3.096,-3.097 v -33.832 c 0,-1.71 1.386,-3.097 3.096,-3.097 H 2.487 c 1.71,0 3.096,-1.385 3.096,-3.095 v -7.504 c 0,-1.71 -1.386,-3.096 -3.096,-3.096 h -78.966 c -1.71,0 -3.096,1.386 -3.096,3.096 V -6.952 c 0,1.71 1.386,3.096 3.096,3.096 H 0" /></g><g
           transform="translate(854.1768,52.2269)"
           id="g60"><path
             id="path62"
             style="fill:#427ec7;fill-opacity:1;fill-rule:nonzero;stroke:none"
             d="M 0,0 C -1.065,0 -2.057,0.479 -2.719,1.313 L -71.142,87.679 V 3.47 C -71.142,1.557 -72.698,0 -74.611,0 h -12.27 c -1.914,0 -3.471,1.557 -3.471,3.47 v 116.063 c 0,1.913 1.557,3.47 3.471,3.47 h 10.114 c 1.064,0 2.054,-0.478 2.717,-1.311 L -5.459,35.307 v 84.226 c 0,1.913 1.557,3.47 3.47,3.47 h 12.104 c 1.913,0 3.47,-1.557 3.47,-3.47 V 3.47 C 13.585,1.557 12.028,0 10.115,0 Z" /></g><g
           transform="translate(864.292,177.1586)"
           id="g64"><path
             id="path66"
             style="fill:#427ec8;fill-opacity:1;fill-rule:nonzero;stroke:none"
             d="m 0,0 h -12.104 c -2.977,0 -5.399,-2.422 -5.399,-5.398 V -84.096 L -82.654,-2.042 C -83.685,-0.744 -85.226,0 -86.882,0 h -10.114 c -2.977,0 -5.399,-2.422 -5.399,-5.398 v -116.064 c 0,-2.976 2.422,-5.398 5.399,-5.398 h 12.269 c 2.977,0 5.399,2.422 5.399,5.398 v 78.67 l 64.982,-82.022 c 1.031,-1.3 2.573,-2.046 4.231,-2.046 H 0 c 2.977,0 5.398,2.422 5.398,5.398 V -5.398 C 5.398,-2.422 2.977,0 0,0 m 0,-3.856 c 0.852,0 1.542,-0.691 1.542,-1.542 v -116.064 c 0,-0.851 -0.69,-1.542 -1.542,-1.542 h -10.115 c -0.471,0 -0.916,0.215 -1.208,0.584 l -69.11,87.232 c -0.322,0.406 -0.761,0.587 -1.194,0.587 -0.789,0 -1.558,-0.601 -1.558,-1.545 v -85.316 c 0,-0.851 -0.69,-1.542 -1.542,-1.542 h -12.269 c -0.853,0 -1.543,0.691 -1.543,1.542 V -5.398 c 0,0.851 0.69,1.542 1.543,1.542 h 10.114 c 0.47,0 0.915,-0.215 1.208,-0.583 l 69.277,-87.249 c 0.322,-0.406 0.76,-0.587 1.193,-0.587 0.789,0 1.558,0.602 1.558,1.546 v 85.331 c 0,0.851 0.69,1.542 1.542,1.542 H 0" /></g><g
           transform="translate(978.96,158.3422)"
           id="g68"><path
             id="path70"
             style="fill:#427ec7;fill-opacity:1;fill-rule:nonzero;stroke:none"
             d="m 0,0 c -8.534,0 -16.362,-1.945 -23.269,-5.782 -6.872,-3.819 -12.341,-9.185 -16.256,-15.948 -3.926,-6.783 -5.917,-14.482 -5.917,-22.884 0,-8.405 1.991,-16.104 5.916,-22.883 3.914,-6.764 9.383,-12.13 16.257,-15.948 6.907,-3.837 14.735,-5.783 23.269,-5.783 8.53,0 16.327,1.944 23.176,5.777 6.814,3.814 12.228,9.177 16.092,15.937 3.877,6.786 5.843,14.491 5.843,22.9 0,8.406 -1.966,16.111 -5.843,22.901 C 35.402,-14.952 29.987,-9.59 23.176,-5.776 16.327,-1.943 8.53,0 0,0 m 0,-107.111 c -12.034,0 -23.112,2.739 -32.928,8.14 -9.853,5.422 -17.661,12.967 -23.206,22.426 -5.542,9.449 -8.352,20.192 -8.352,31.931 0,11.738 2.81,22.482 8.352,31.932 5.546,9.459 13.354,17.004 23.206,22.426 9.815,5.401 20.894,8.139 32.928,8.139 12.029,0 23.053,-2.711 32.762,-8.058 9.741,-5.368 17.519,-12.911 23.12,-22.419 5.599,-9.508 8.438,-20.281 8.438,-32.02 0,-11.741 -2.839,-22.515 -8.438,-32.021 -5.601,-9.511 -13.38,-17.053 -23.12,-22.418 C 23.058,-104.4 12.035,-107.111 0,-107.111" /></g><g
           transform="translate(978.96,71.0433)"
           id="g72"><path
             id="path74"
             style="fill:#427ec8;fill-opacity:1;fill-rule:nonzero;stroke:none"
             d="m 0,0 c -8.203,0 -15.717,1.863 -22.332,5.538 -6.564,3.648 -11.788,8.771 -15.524,15.229 -3.754,6.482 -5.658,13.856 -5.658,21.918 0,8.059 1.904,15.433 5.657,21.918 3.739,6.459 8.962,11.583 15.525,15.229 6.615,3.675 14.129,5.538 22.332,5.538 8.196,0 15.677,-1.86 22.234,-5.53 6.501,-3.64 11.669,-8.758 15.36,-15.212 3.708,-6.492 5.589,-13.876 5.589,-21.943 0,-8.07 -1.881,-15.453 -5.589,-21.944 C 33.905,14.289 28.738,9.171 22.233,5.529 15.677,1.86 8.196,0 0,0 m 0,107.109 c -12.364,0 -23.755,-2.818 -33.856,-8.378 -10.164,-5.591 -18.218,-13.377 -23.941,-23.139 -5.718,-9.748 -8.617,-20.821 -8.617,-32.907 0,-12.086 2.899,-23.159 8.617,-32.908 5.723,-9.761 13.777,-17.547 23.941,-23.138 10.102,-5.56 21.493,-8.379 33.856,-8.379 12.364,0 23.7,2.792 33.693,8.298 10.047,5.534 18.072,13.315 23.85,23.128 5.776,9.806 8.706,20.909 8.706,32.999 0,12.086 -2.929,23.189 -8.706,32.999 -5.778,9.809 -13.802,17.591 -23.85,23.129 -9.998,5.505 -21.334,8.296 -33.693,8.296 M 0,-3.856 c 8.864,0 16.979,2.026 24.118,6.021 h -10e-4 c 7.124,3.988 12.784,9.595 16.824,16.663 4.046,7.081 6.097,15.109 6.097,23.857 0,8.746 -2.051,16.773 -6.097,23.857 -4.042,7.07 -9.703,12.677 -16.824,16.663 C 16.979,87.2 8.864,89.227 0,89.227 c -8.866,0 -17.01,-2.028 -24.204,-6.025 -7.181,-3.989 -12.898,-9.597 -16.99,-16.668 -4.098,-7.079 -6.176,-15.102 -6.176,-23.849 0,-8.749 2.078,-16.773 6.176,-23.849 4.09,-7.07 9.806,-12.678 16.99,-16.668 C -17.01,-1.829 -8.866,-3.856 0,-3.856 m 0,107.11 c 11.701,0 22.411,-2.631 31.833,-7.818 9.433,-5.2 16.965,-12.503 22.388,-21.709 5.423,-9.208 8.173,-19.653 8.173,-31.042 0,-11.392 -2.75,-21.836 -8.173,-31.042 C 48.798,2.434 41.266,-4.87 31.833,-10.065 22.416,-15.254 11.706,-17.885 0,-17.885 c -11.706,0 -22.472,2.659 -31.998,7.903 v -0.001 c -9.546,5.253 -17.106,12.557 -22.473,21.712 -5.366,9.149 -8.088,19.564 -8.088,30.956 0,11.392 2.722,21.807 8.088,30.957 5.367,9.154 12.928,16.46 22.473,21.712 9.526,5.242 20.292,7.9 31.998,7.9" /></g><g
           transform="translate(986.7363,305.1078)"
           id="g76"><path
             id="path78"
             style="fill:#427ec7;fill-opacity:1;fill-rule:nonzero;stroke:none"
             d="m 0,0 c -7.267,0 -13.942,-1.662 -19.843,-4.94 -5.892,-3.274 -10.582,-7.875 -13.939,-13.675 -3.362,-5.808 -5.067,-12.388 -5.067,-19.559 0,-7.173 1.705,-13.753 5.067,-19.557 3.355,-5.801 8.046,-10.403 13.939,-13.677 5.899,-3.278 12.575,-4.94 19.843,-4.94 7.266,0 13.918,1.661 19.773,4.938 5.845,3.272 10.489,7.873 13.804,13.674 3.319,5.807 5.002,12.389 5.002,19.562 0,7.172 -1.683,13.753 -5.002,19.563 -3.316,5.8 -7.96,10.4 -13.804,13.673 C 13.917,-1.662 7.265,0 0,0 m 0,-87.183 c -9.478,0 -18.193,2.152 -25.904,6.395 -7.722,4.249 -13.839,10.158 -18.182,17.564 -4.341,7.402 -6.542,15.83 -6.542,25.05 0,9.22 2.201,17.649 6.543,25.05 4.341,7.404 10.458,13.313 18.181,17.564 7.711,4.244 16.426,6.395 25.904,6.395 9.474,0 18.144,-2.129 25.77,-6.327 7.632,-4.207 13.726,-10.115 18.113,-17.563 4.387,-7.451 6.61,-15.902 6.61,-25.119 0,-9.22 -2.223,-17.671 -6.61,-25.119 C 39.496,-70.743 33.401,-76.651 25.77,-80.855 18.149,-85.054 9.479,-87.183 0,-87.183" /></g><g
           transform="translate(986.7363,229.724)"
           id="g80"><path
             id="path82"
             style="fill:#427ec8;fill-opacity:1;fill-rule:nonzero;stroke:none"
             d="m 0,0 c -7.102,0 -13.62,1.621 -19.375,4.818 -5.738,3.189 -10.305,7.668 -13.573,13.316 -3.276,5.657 -4.937,12.075 -4.937,19.076 0,6.999 1.661,13.417 4.937,19.075 3.269,5.649 7.836,10.129 13.573,13.317 5.755,3.196 12.273,4.817 19.375,4.817 7.099,0 13.593,-1.619 19.302,-4.815 5.688,-3.184 10.21,-7.663 13.438,-13.31 3.235,-5.662 4.874,-12.083 4.874,-19.084 0,-7.004 -1.639,-13.425 -4.874,-19.085 C 29.514,12.479 24.992,8.001 19.302,4.815 13.593,1.62 7.099,0 0,0 m 0,87.183 c -9.643,0 -18.515,-2.192 -26.369,-6.515 -7.877,-4.334 -14.117,-10.363 -18.548,-17.921 -4.429,-7.552 -6.675,-16.144 -6.675,-25.537 0,-9.394 2.246,-17.985 6.675,-25.538 4.431,-7.557 10.671,-13.587 18.548,-17.921 7.854,-4.322 16.726,-6.514 26.369,-6.514 9.644,0 18.47,2.169 26.235,6.448 7.786,4.288 14.002,10.316 18.478,17.917 4.475,7.598 6.744,16.214 6.744,25.608 0,9.392 -2.269,18.007 -6.744,25.607 C 40.237,70.416 34.021,76.444 26.235,80.735 18.466,85.014 9.639,87.183 0,87.183 M 0,-1.928 c 7.467,0 14.215,1.687 20.244,5.061 6.027,3.374 10.75,8.052 14.17,14.036 3.419,5.982 5.129,12.662 5.129,20.041 0,7.376 -1.71,14.057 -5.129,20.041 -3.42,5.982 -8.143,10.661 -14.17,14.035 C 14.215,74.66 7.467,76.348 0,76.348 c -7.469,0 -14.238,-1.688 -20.311,-5.062 -6.073,-3.374 -10.843,-8.053 -14.305,-14.035 -3.465,-5.984 -5.197,-12.665 -5.197,-20.041 0,-7.379 1.732,-14.059 5.197,-20.041 3.462,-5.984 8.232,-10.662 14.305,-14.036 C -14.238,-0.241 -7.469,-1.928 0,-1.928 m 0,87.183 c 9.356,0 17.791,-2.071 25.305,-6.208 7.51,-4.14 13.427,-9.876 17.747,-17.207 4.318,-7.335 6.477,-15.544 6.477,-24.63 0,-9.089 -2.159,-17.298 -6.477,-24.63 C 38.732,5.246 32.815,-0.49 25.305,-4.627 17.791,-8.767 9.356,-10.835 0,-10.835 c -9.358,0 -17.837,2.092 -25.439,6.275 -7.604,4.184 -13.542,9.92 -17.815,17.207 -4.274,7.289 -6.41,15.474 -6.41,24.563 0,9.086 2.136,17.274 6.41,24.562 4.273,7.288 10.211,13.023 17.815,17.207 7.602,4.184 16.081,6.276 25.439,6.276" /></g><g
           transform="translate(536.5225,217.9252)"
           id="g84"><path
             id="path86"
             style="fill:#427ec7;fill-opacity:1;fill-rule:nonzero;stroke:none"
             d="m 0,0 c -12.45,0 -22.309,3.64 -29.301,10.817 -6.988,7.172 -10.531,17.705 -10.531,31.309 V 85.38 c -2.482,0.455 -4.37,2.635 -4.37,5.247 v 6.581 h 20.636 v -6.601 c 0,-2.601 -1.879,-4.772 -4.351,-5.226 V 42.53 c 0,-10.677 2.412,-18.721 7.169,-23.91 4.734,-5.166 11.715,-7.785 20.748,-7.785 9.121,0 16.147,2.619 20.883,7.785 4.757,5.191 7.169,13.234 7.169,23.91 v 42.846 c -2.621,0.458 -4.62,2.751 -4.62,5.501 v 6.331 h 21.02 v -6.195 c 0,-2.825 -2.059,-5.179 -4.755,-5.639 V 42.126 C 39.697,28.525 36.177,17.992 29.236,10.82 22.285,3.641 12.449,0 0,0" /></g><g
           transform="translate(581.939,316.097)"
           id="g88"><path
             id="path90"
             style="fill:#427ec8;fill-opacity:1;fill-rule:nonzero;stroke:none"
             d="m 0,0 h -1.928 -4.756 -9.581 -0.136 -4.62 -1.928 v -1.929 -5.366 c 0,-2.939 1.948,-5.434 4.62,-6.258 v -42.089 c 0,-10.425 -2.326,-18.252 -6.916,-23.259 -4.545,-4.958 -11.332,-7.472 -20.172,-7.472 -8.751,0 -15.493,2.514 -20.036,7.472 -4.589,5.005 -6.916,12.832 -6.916,23.259 v 42.102 c 2.521,0.815 4.35,3.186 4.35,5.976 V -1.929 0 h -1.928 -4.35 -9.987 -4.37 -1.928 v -1.929 -5.616 c 0,-2.801 1.837,-5.18 4.37,-5.996 v -42.505 c 0,-13.864 3.635,-24.624 10.804,-31.981 7.181,-7.371 17.271,-11.109 29.991,-11.109 12.721,0 22.79,3.74 29.929,11.114 7.122,7.357 10.733,18.116 10.733,31.976 V -13.56 C -2.007,-12.729 0,-10.175 0,-7.159 v 5.23 z m -1.928,-1.929 v -5.23 c 0,-2.627 -2.129,-4.756 -4.756,-4.756 v -44.131 c 0,-13.407 -3.397,-23.617 -10.189,-30.636 -6.794,-7.017 -16.309,-10.526 -28.544,-10.526 -12.236,0 -21.774,3.509 -28.61,10.526 -6.839,7.019 -10.257,17.229 -10.257,30.636 v 44.131 c -2.414,0 -4.37,1.957 -4.37,4.37 v 5.616 h 4.37 9.967 0.02 4.35 v -5.635 c 0,-2.403 -1.948,-4.351 -4.35,-4.351 v -43.727 c 0,-10.977 2.473,-19.164 7.422,-24.561 4.947,-5.399 12.101,-8.098 21.458,-8.098 9.448,0 16.645,2.699 21.594,8.098 4.947,5.397 7.422,13.584 7.422,24.561 v 43.727 c -2.551,0 -4.62,2.068 -4.62,4.62 v 5.366 h 4.62 0.136 9.581 4.756" /></g><g
           transform="translate(667.5146,218.7347)"
           id="g92"><path
             id="path94"
             style="fill:#427ec7;fill-opacity:1;fill-rule:nonzero;stroke:none"
             d="m 0,0 v 6.6 c 0,2.601 1.879,4.772 4.351,5.226 V 84.571 C 1.879,85.025 0,87.196 0,89.798 v 6.6 h 20.615 v -6.6 c 0,-2.602 -1.879,-4.773 -4.35,-5.227 V 11.826 c 2.471,-0.454 4.35,-2.625 4.35,-5.226 l 0,-6.6 z" /></g><g
           transform="translate(689.0937,316.097)"
           id="g96"><path
             id="path98"
             style="fill:#427ec8;fill-opacity:1;fill-rule:nonzero;stroke:none"
             d="m 0,0 h -1.928 -4.35 -9.987 -4.35 -1.929 v -1.929 -5.635 c 0,-2.79 1.829,-5.161 4.351,-5.976 v -71.246 c -2.522,-0.817 -4.351,-3.187 -4.351,-5.977 v -5.635 -1.928 h 1.929 4.35 9.987 4.35 H 0 v 1.928 5.635 c 0,2.79 -1.829,5.16 -4.351,5.977 V -13.54 C -1.829,-12.725 0,-10.354 0,-7.564 v 5.635 z m -1.928,-1.929 v -5.635 c 0,-2.403 -1.947,-4.351 -4.35,-4.351 v -74.497 c 2.403,0 4.35,-1.947 4.35,-4.351 v -5.635 h -4.35 -9.987 -4.35 v 5.635 c 0,2.404 1.947,4.351 4.35,4.351 v 74.497 c -2.403,0 -4.35,1.948 -4.35,4.351 v 5.635 h 4.35 9.987 4.35" /></g><g
           transform="translate(816.1523,259.2601)"
           id="g100"><path
             id="path102"
             style="fill:#427ec7;fill-opacity:1;fill-rule:nonzero;stroke:none"
             d="m 0,0 c 9.083,0 16.096,1.991 20.844,5.92 4.692,3.883 7.072,9.468 7.072,16.599 0,7.308 -2.38,12.984 -7.072,16.87 C 16.094,43.315 9.081,45.308 0,45.308 H -24.139 V 0 Z m -40.404,-40.525 v 6.599 c 0,2.602 1.879,4.773 4.35,5.227 v 74.095 c -2.471,0.454 -4.35,2.625 -4.35,5.226 v 5.251 H 0.27 c 12.23,0 21.974,-2.982 28.961,-8.864 7.034,-5.925 10.6,-14.164 10.6,-24.49 0,-10.33 -3.567,-18.547 -10.602,-24.425 C 22.245,-7.741 12.502,-10.7 0.27,-10.7 h -24.409 v -17.999 c 2.472,-0.454 4.351,-2.625 4.351,-5.227 v -6.599 z" /></g><g
           transform="translate(792.9775,303.6039)"
           id="g104"><path
             id="path106"
             style="fill:#427ec8;fill-opacity:1;fill-rule:nonzero;stroke:none"
             d="m 0,0 h 23.175 c 8.85,0 15.657,-1.918 20.228,-5.698 4.525,-3.745 6.724,-9.021 6.724,-16.127 0,-6.927 -2.199,-12.113 -6.724,-15.857 -4.569,-3.781 -11.375,-5.698 -20.228,-5.698 H 0 Z M 23.444,12.493 H -1.928 -16.266 -18.193 V 10.564 6.278 c 0,-2.79 1.829,-5.16 4.35,-5.975 v -72.596 c -2.521,-0.816 -4.35,-3.186 -4.35,-5.977 v -5.635 -1.928 h 1.927 4.351 9.987 4.351 1.928 v 1.928 5.635 c 0,2.791 -1.83,5.161 -4.351,5.977 v 16.285 h 23.444 c 12.465,0 22.416,3.034 29.577,9.019 7.265,6.07 10.949,14.537 10.949,25.164 0,10.624 -3.682,19.111 -10.943,25.227 -7.166,6.033 -17.119,9.091 -29.583,9.091 M -1.928,-45.308 h 25.103 c 9.355,0 16.509,2.046 21.457,6.141 4.947,4.093 7.423,9.873 7.423,17.342 0,7.646 -2.476,13.517 -7.423,17.612 C 39.684,-0.12 32.53,1.928 23.175,1.928 H -1.928 v -47.236 m 25.372,55.872 c 12.056,0 21.502,-2.879 28.341,-8.636 6.837,-5.759 10.257,-13.677 10.257,-23.753 0,-10.077 -3.42,-17.973 -10.257,-23.685 -6.839,-5.715 -16.285,-8.57 -28.341,-8.57 H -1.928 v -19.839 c 2.403,0 4.351,-1.947 4.351,-4.351 v -5.635 h -4.351 -9.987 -4.351 v 5.635 c 0,2.404 1.949,4.351 4.351,4.351 V 1.928 c -2.402,0 -4.351,1.947 -4.351,4.35 v 4.286 h 14.338 25.372" /></g><g
           transform="translate(155.0781,218.7347)"
           id="g108"><path
             id="path110"
             style="fill:#427ec7;fill-opacity:1;fill-rule:nonzero;stroke:none"
             d="m 0,0 v 6.459 c 0,2.679 1.941,4.913 4.492,5.37 V 85.908 C 2.03,86.362 0.16,88.524 0.16,91.115 v 5.283 h 71.039 l 0.033,-0.963 V 80.133 H 59.318 v 5.7 H 16.406 V 54.156 H 65.261 V 43.727 H 16.406 V 10.565 h 44.903 v 5.7 H 73.224 L 73.224,0 Z" /></g><g
           transform="translate(227.2744,316.097)"
           id="g112"><path
             id="path114"
             style="fill:#427ec8;fill-opacity:1;fill-rule:nonzero;stroke:none"
             d="M 0,0 H -1.928 -1.961 -11.915 -56.735 -71.072 -73 v -1.929 -4.318 c 0,-2.778 1.82,-5.141 4.332,-5.955 v -72.577 c -2.602,-0.822 -4.493,-3.256 -4.493,-6.124 v -5.495 -1.928 h 1.929 4.491 9.845 46.973 9.986 1.928 v 1.928 8.637 5.699 1.929 h -1.928 -9.986 -1.929 v -1.929 -3.771 H -54.826 V -54.6 h 46.927 1.927 v 1.928 8.502 1.928 h -1.927 -46.927 v 29.736 0.013 h 40.984 v -3.773 -1.927 h 1.927 9.987 H 0 v 1.927 l 0,14.337 z m -1.928,-1.929 v -14.337 h -9.987 v 5.701 h -44.82 v -0.013 h -0.019 V -44.17 h 48.855 v -8.502 h -48.855 v -35.089 h 46.831 v 5.699 h 9.986 v -5.699 -8.637 h -9.986 -46.973 -9.845 -4.491 v 5.495 c 0,2.48 2.01,4.491 4.491,4.491 v 75.834 c -2.392,0 -4.331,1.939 -4.331,4.331 v 4.318 h 14.337 44.82 9.954 0.033" /></g><g
           transform="translate(359.0552,305.1078)"
           id="g116"><path
             id="path118"
             style="fill:#427ec7;fill-opacity:1;fill-rule:nonzero;stroke:none"
             d="m 0,0 c -7.263,0 -13.937,-1.684 -19.838,-5.005 -5.897,-3.321 -10.589,-7.924 -13.946,-13.681 -3.361,-5.76 -5.065,-12.317 -5.065,-19.488 0,-7.172 1.704,-13.728 5.065,-19.488 3.359,-5.76 8.051,-10.362 13.946,-13.682 5.897,-3.32 12.571,-5.004 19.838,-5.004 7.266,0 13.917,1.684 19.768,5.003 5.847,3.317 10.494,7.919 13.811,13.679 3.317,5.762 5,12.32 5,19.492 0,7.171 -1.683,13.73 -5,19.493 -3.316,5.757 -7.962,10.359 -13.811,13.677 C 13.912,-1.684 7.261,0 0,0 m 30.905,-105.132 c -5.717,0 -11.208,1.425 -16.322,4.236 -4.985,2.741 -10.624,7.358 -16.761,13.727 -9.055,0.326 -17.337,2.635 -24.622,6.864 -7.404,4.295 -13.289,10.18 -17.492,17.492 -4.204,7.31 -6.336,15.6 -6.336,24.639 0,9.219 2.201,17.648 6.543,25.05 4.341,7.405 10.458,13.314 18.181,17.564 7.71,4.244 16.426,6.395 25.904,6.395 9.473,0 18.144,-2.129 25.77,-6.327 7.631,-4.206 13.725,-10.115 18.112,-17.563 4.388,-7.451 6.612,-15.903 6.612,-25.119 0,-8.028 -1.691,-15.506 -5.027,-22.224 -3.339,-6.721 -8.067,-12.399 -14.051,-16.875 -5.534,-4.14 -11.905,-7.025 -18.962,-8.59 6.291,-6.226 12.537,-9.379 18.587,-9.379 3.076,0 5.984,0.594 8.661,1.765 -0.799,1.321 -1.166,2.852 -1.046,4.421 0.153,1.988 1.071,3.795 2.583,5.092 l 3.384,2.9 4.343,-5.068 0.009,0.01 0.754,-0.827 2.612,-3.12 2.862,-3.339 -0.52,-0.453 -0.09,-0.122 c -2.958,-3.605 -6.499,-6.394 -10.523,-8.29 -4.027,-1.897 -8.456,-2.859 -13.165,-2.859" /></g><g
           transform="translate(359.0552,229.724)"
           id="g120"><path
             id="path122"
             style="fill:#427ec8;fill-opacity:1;fill-rule:nonzero;stroke:none"
             d="m 0,0 c -7.1,0 -13.615,1.642 -19.365,4.88 -5.744,3.233 -10.315,7.717 -13.586,13.327 -3.274,5.611 -4.933,12.005 -4.933,19.003 0,6.998 1.659,13.392 4.933,19.002 3.27,5.607 7.841,10.092 13.586,13.327 5.754,3.238 12.269,4.88 19.365,4.88 7.093,0 13.584,-1.641 19.293,-4.877 5.696,-3.232 10.222,-7.715 13.451,-13.321 3.232,-5.615 4.871,-12.011 4.871,-19.011 0,-7.001 -1.639,-13.398 -4.872,-19.012 C 29.513,12.589 24.987,8.107 19.292,4.877 13.588,1.641 7.097,0 0,0 m 0,87.183 c -9.643,0 -18.514,-2.192 -26.369,-6.515 -7.877,-4.334 -14.118,-10.363 -18.548,-17.921 -4.429,-7.552 -6.675,-16.144 -6.675,-25.537 0,-9.21 2.175,-17.661 6.465,-25.119 4.286,-7.459 10.29,-13.464 17.843,-17.846 7.319,-4.248 15.619,-6.595 24.682,-6.978 6.101,-6.295 11.724,-10.877 16.721,-13.624 5.259,-2.89 10.907,-4.356 16.787,-4.356 4.85,0 9.417,0.993 13.574,2.951 4.155,1.959 7.809,4.835 10.858,8.55 l 0.066,0.08 1.133,0.971 -1.225,1.49 -2.247,2.621 -2.597,3.103 -1.46,1.743 -0.048,-0.056 -2.978,3.475 -1.255,1.464 -1.464,-1.255 -2.651,-2.273 c -2.87,-2.46 -3.676,-6.447 -2.246,-9.747 -2.289,-0.862 -4.744,-1.298 -7.325,-1.298 -5.387,0 -10.974,2.651 -16.643,7.887 6.504,1.666 12.409,4.465 17.595,8.345 6.106,4.567 10.93,10.36 14.337,17.218 3.402,6.853 5.128,14.475 5.128,22.654 0,9.392 -2.27,18.007 -6.745,25.607 C 40.237,70.416 34.021,76.444 26.235,80.735 18.466,85.014 9.639,87.183 0,87.183 M 0,-1.928 c 7.467,0 14.215,1.708 20.244,5.128 6.027,3.419 10.75,8.098 14.17,14.036 3.419,5.938 5.128,12.595 5.128,19.974 0,7.376 -1.709,14.035 -5.128,19.974 -3.42,5.938 -8.143,10.615 -14.17,14.035 C 14.215,74.637 7.467,76.348 0,76.348 c -7.469,0 -14.238,-1.711 -20.311,-5.129 -6.073,-3.42 -10.843,-8.097 -14.306,-14.035 -3.464,-5.939 -5.196,-12.598 -5.196,-19.974 0,-7.379 1.732,-14.036 5.196,-19.974 C -31.154,11.298 -26.384,6.619 -20.311,3.2 -14.238,-0.22 -7.469,-1.928 0,-1.928 m 0,87.183 c 9.356,0 17.791,-2.071 25.305,-6.208 C 32.816,74.907 38.733,69.171 43.052,61.84 47.37,54.505 49.53,46.296 49.53,37.21 49.53,29.292 47.887,22.027 44.604,15.414 41.318,8.802 36.729,3.289 30.838,-1.118 24.944,-5.527 18.173,-8.452 10.527,-9.891 c 6.927,-7.287 13.765,-10.931 20.514,-10.931 3.655,0 7.027,0.79 10.121,2.352 -2.334,2.723 -2.019,6.824 0.705,9.157 l 2.651,2.273 4.44,-5.18 0.032,0.035 2.612,-3.12 2.246,-2.621 -0.03,-0.026 0.03,-0.036 c -2.88,-3.509 -6.275,-6.185 -10.189,-8.03 -3.914,-1.843 -8.165,-2.766 -12.753,-2.766 -5.58,0 -10.865,1.372 -15.858,4.116 -4.993,2.745 -10.594,7.355 -16.802,13.833 -9.089,0.27 -17.275,2.518 -24.562,6.748 -7.288,4.228 -13.003,9.941 -17.141,17.139 -4.139,7.197 -6.207,15.251 -6.207,24.158 0,9.086 2.136,17.274 6.41,24.562 4.272,7.288 10.211,13.023 17.815,17.207 7.602,4.184 16.081,6.276 25.439,6.276" /></g></g></g></g></svg>