<?xml version="1.0" encoding="UTF-8" standalone="no"?>
<svg
   xmlns:dc="http://purl.org/dc/elements/1.1/"
   xmlns:cc="http://creativecommons.org/ns#"
   xmlns:rdf="http://www.w3.org/1999/02/22-rdf-syntax-ns#"
   xmlns:svg="http://www.w3.org/2000/svg"
   xmlns="http://www.w3.org/2000/svg"
   viewBox="0 0 1122.52 793.70135"
   height="793.70135"
   width="1122.52"
   xml:space="preserve"
   id="svg2"
   version="1.1"><metadata
     id="metadata8"><rdf:RDF><cc:Work
         rdf:about=""><dc:format>image/svg+xml</dc:format><dc:type
           rdf:resource="http://purl.org/dc/dcmitype/StillImage" /></cc:Work></rdf:RDF></metadata><defs
     id="defs6"><clipPath
       id="clipPath20"
       clipPathUnits="userSpaceOnUse"><path
         id="path18"
         d="M 0,595.276 H 841.89 V 0 H 0 Z" /></clipPath></defs><g
     transform="matrix(1.3333333,0,0,-1.3333333,0,793.70133)"
     id="g10"><path
       id="path12"
       style="fill:#2b2b2a;fill-opacity:1;fill-rule:nonzero;stroke:none"
       d="M 833.843,199.356 H 23.833 v 2.381 h 810.01 z" /><g
       id="g14"><g
         clip-path="url(#clipPath20)"
         id="g16"><g
           transform="translate(724.3096,387.5505)"
           id="g22"><path
             id="path24"
             style="fill:#2b2b2a;fill-opacity:1;fill-rule:nonzero;stroke:none"
             d="M 0,0 V -32.258 H 105.634 V -76.709 H 0 v -98.617 H -44.451 V 0 c 0,37.053 30.163,67.216 67.216,67.216 h 82.869 V 22.765 H 22.765 C 10.224,22.765 0,12.542 0,0" /></g><g
           transform="translate(133.3677,387.5505)"
           id="g26"><path
             id="path28"
             style="fill:#2b2b2a;fill-opacity:1;fill-rule:nonzero;stroke:none"
             d="M 0,0 V -32.258 H -105.634 V -76.709 H 0 v -98.617 H 44.451 V 0 c 0,37.053 -30.163,67.216 -67.216,67.216 h -82.869 V 22.765 h 82.869 C -10.224,22.765 0,12.542 0,0" /></g><g
           transform="translate(673.2695,352.6262)"
           id="g30"><path
             id="path32"
             style="fill:#f39415;fill-opacity:1;fill-rule:nonzero;stroke:none"
             d="m 0,0 v -44.451 c -39.879,0 -60.358,21.432 -76.805,38.64 -15.653,16.384 -24.733,24.925 -44.673,24.925 -19.939,0 -29.019,-8.541 -44.672,-24.925 -16.447,-17.208 -36.926,-38.64 -76.804,-38.64 -39.847,0 -60.326,21.432 -76.773,38.64 -15.653,16.384 -24.734,24.925 -44.673,24.925 -19.908,0 -29.02,-8.541 -44.641,-24.925 -16.447,-17.208 -36.926,-38.64 -76.804,-38.64 -1.016,0 -2.032,0 -3.017,0.064 v 44.45 c 0.985,-0.031 1.969,-0.063 3.017,-0.063 19.939,0 29.019,8.541 44.673,24.924 16.446,17.209 36.925,38.64 76.772,38.64 39.879,0 60.358,-21.431 76.804,-38.64 C -271.975,8.541 -262.862,0 -242.954,0 c 19.938,0 29.051,8.541 44.672,24.924 16.447,17.209 36.926,38.64 76.804,38.64 39.879,0 60.358,-21.431 76.805,-38.64 C -29.052,8.541 -19.939,0 0,0" /></g><g
           transform="translate(201.4883,238.9611)"
           id="g34"><path
             id="path36"
             style="fill:#2b2b2a;fill-opacity:1;fill-rule:nonzero;stroke:none"
             d="M 0,0 C 0,-0.629 0.341,-0.945 1.023,-0.945 H 13.86 c 5.143,0 8.87,1.364 11.181,4.095 2.31,2.729 3.466,7.138 3.466,13.231 0,6.09 -1.144,10.483 -3.426,13.19 -2.285,2.703 -6.025,4.056 -11.221,4.056 H 1.023 C 0.341,33.627 0,33.311 0,32.681 Z m 13.86,42.919 c 7.819,0 13.766,-2.18 17.834,-6.536 C 35.763,32.023 37.8,25.329 37.8,16.3 37.8,7.324 35.763,0.654 31.694,-3.702 27.626,-8.062 21.679,-10.238 13.86,-10.238 H -4.884 c -2.942,0 -4.408,1.445 -4.408,4.332 v 44.494 c 0,2.887 1.466,4.331 4.408,4.331 z" /></g><g
           transform="translate(300.5532,281.8801)"
           id="g38"><path
             id="path40"
             style="fill:#2b2b2a;fill-opacity:1;fill-rule:nonzero;stroke:none"
             d="m 0,0 v -9.292 h -26.616 c -2.837,0 -4.884,-0.605 -6.142,-1.812 -1.262,-1.209 -1.891,-2.836 -1.891,-4.882 0,-4.201 2.703,-6.301 8.111,-6.301 h 26.144 v -8.428 h -26.38 c -5.408,0 -8.111,-2.151 -8.111,-6.455 0,-2.102 0.654,-3.742 1.968,-4.924 1.312,-1.181 3.334,-1.77 6.063,-1.77 H 0.081 v -9.293 h -26.935 c -3.148,0 -5.839,0.366 -8.071,1.104 -2.233,0.732 -4.069,1.742 -5.513,3.03 -1.445,1.286 -2.493,2.821 -3.151,4.607 -0.657,1.786 -0.983,3.702 -0.983,5.748 0,3.045 0.655,5.578 1.969,7.6 1.312,2.021 3.2,3.556 5.671,4.607 -4.988,2.047 -7.482,6.037 -7.482,11.969 0,2.102 0.342,4.043 1.024,5.829 0.682,1.783 1.745,3.321 3.187,4.607 1.445,1.285 3.281,2.283 5.513,2.993 2.232,0.707 4.924,1.063 8.074,1.063 z" /></g><g
           transform="translate(361.5859,281.8801)"
           id="g42"><path
             id="path44"
             style="fill:#2b2b2a;fill-opacity:1;fill-rule:nonzero;stroke:none"
             d="m 0,0 v -9.292 h -27.249 c -2.415,0 -4.173,-0.593 -5.273,-1.774 -1.104,-1.181 -1.656,-2.691 -1.656,-4.527 0,-0.788 0.117,-1.562 0.356,-2.322 0.236,-0.763 0.655,-1.445 1.259,-2.05 0.602,-0.604 1.405,-1.076 2.403,-1.417 0.995,-0.341 2.282,-0.512 3.857,-0.512 h 12.443 c 3.622,0 6.589,-0.459 8.899,-1.376 2.31,-0.92 4.133,-2.115 5.473,-3.584 1.339,-1.47 2.257,-3.151 2.756,-5.042 0.499,-1.888 0.747,-3.78 0.747,-5.667 0,-2.258 -0.313,-4.333 -0.942,-6.224 -0.633,-1.888 -1.628,-3.531 -2.995,-4.921 -1.365,-1.392 -3.11,-2.48 -5.238,-3.268 -2.123,-0.787 -4.709,-1.181 -7.754,-1.181 h -29.611 v 9.293 h 29.924 c 2.521,0 4.372,0.617 5.553,1.85 1.182,1.232 1.771,2.823 1.771,4.763 0,0.841 -0.131,1.668 -0.394,2.48 -0.264,0.816 -0.707,1.523 -1.336,2.127 -0.633,0.606 -1.486,1.089 -2.561,1.458 -1.077,0.366 -2.429,0.552 -4.056,0.552 h -12.362 c -3.572,0 -6.487,0.447 -8.744,1.339 -2.257,0.891 -4.028,2.071 -5.314,3.544 -1.288,1.467 -2.18,3.123 -2.677,4.962 -0.502,1.835 -0.75,3.674 -0.75,5.513 0,2.204 0.304,4.238 0.906,6.101 0.604,1.863 1.575,3.476 2.914,4.844 1.339,1.364 3.057,2.428 5.16,3.187 2.099,0.763 4.616,1.144 7.559,1.144 z" /></g><path
           id="path46"
           style="fill:#2b2b2a;fill-opacity:1;fill-rule:nonzero;stroke:none"
           d="m 393.085,228.723 h -9.292 v 53.157 h 9.292 z" /><g
           transform="translate(457.7393,281.8801)"
           id="g48"><path
             id="path50"
             style="fill:#2b2b2a;fill-opacity:1;fill-rule:nonzero;stroke:none"
             d="m 0,0 v -9.292 h -21.894 c -5.143,0 -8.885,-1.353 -11.22,-4.056 -2.338,-2.707 -3.504,-7.129 -3.504,-13.271 0,-6.089 1.153,-10.486 3.463,-13.19 2.31,-2.704 6.065,-4.055 11.261,-4.055 h 8.822 c 2.623,0 4.514,0.694 5.668,2.087 1.156,1.388 1.733,3.19 1.733,5.394 0,2.153 -0.539,3.82 -1.615,5.002 -1.076,1.181 -2.716,1.771 -4.921,1.771 h -11.814 v 8.11 h 12.759 c 4.776,0 8.32,-1.352 10.633,-4.055 2.307,-2.704 3.463,-6.366 3.463,-10.986 0,-2.31 -0.301,-4.477 -0.905,-6.495 -0.605,-2.022 -1.575,-3.78 -2.914,-5.277 -1.337,-1.499 -3.045,-2.68 -5.119,-3.544 -2.076,-0.866 -4.605,-1.3 -7.597,-1.3 h -8.193 c -7.769,0 -13.716,2.192 -17.837,6.577 -4.121,4.381 -6.18,11.035 -6.18,19.961 0,8.979 2.059,15.658 6.18,20.043 C -35.61,-2.192 -29.663,0 -21.894,0 Z" /></g><g
           transform="translate(488.29,228.7228)"
           id="g52"><path
             id="path54"
             style="fill:#2b2b2a;fill-opacity:1;fill-rule:nonzero;stroke:none"
             d="m 0,0 h -9.293 v 42.525 c 0,3.467 0.999,6.26 2.992,8.387 1.997,2.128 5.067,3.192 9.215,3.192 3.675,0 6.472,-0.881 8.388,-2.639 1.916,-1.762 3.426,-4.161 4.526,-7.206 L 31.344,10.316 c 0.313,-0.629 0.735,-1.153 1.259,-1.575 0.524,-0.422 1.234,-0.63 2.127,-0.63 0.996,0 1.77,0.277 2.323,0.828 0.551,0.549 0.827,1.272 0.827,2.165 v 42.053 h 9.37 V 10.71 c 0,-3.517 -1.011,-6.338 -3.032,-8.465 -2.022,-2.127 -5.079,-3.19 -9.175,-3.19 -1.835,0 -3.451,0.223 -4.843,0.67 -1.389,0.446 -2.598,1.103 -3.622,1.968 -1.022,0.866 -1.903,1.904 -2.639,3.11 -0.734,1.21 -1.364,2.574 -1.887,4.096 L 6.536,42.842 C 5.854,44.361 4.75,45.124 3.23,45.124 2.18,45.124 1.38,44.848 0.828,44.296 0.275,43.747 0,42.997 0,42.054 Z" /></g><g
           transform="translate(598.6191,281.8801)"
           id="g56"><path
             id="path58"
             style="fill:#2b2b2a;fill-opacity:1;fill-rule:nonzero;stroke:none"
             d="m 0,0 v -9.292 h -26.615 c -2.837,0 -4.884,-0.605 -6.143,-1.812 -1.262,-1.209 -1.891,-2.836 -1.891,-4.882 0,-4.201 2.704,-6.301 8.111,-6.301 h 26.144 v -8.428 h -26.379 c -5.408,0 -8.112,-2.151 -8.112,-6.455 0,-2.102 0.655,-3.742 1.969,-4.924 1.312,-1.181 3.333,-1.77 6.062,-1.77 H 0.081 v -9.293 h -26.935 c -3.147,0 -5.838,0.366 -8.071,1.104 -2.232,0.732 -4.068,1.742 -5.513,3.03 -1.445,1.286 -2.493,2.821 -3.15,4.607 -0.657,1.786 -0.983,3.702 -0.983,5.748 0,3.045 0.654,5.578 1.968,7.6 1.312,2.021 3.201,3.556 5.671,4.607 -4.988,2.047 -7.481,6.037 -7.481,11.969 0,2.102 0.341,4.043 1.023,5.829 0.682,1.783 1.745,3.321 3.188,4.607 1.444,1.285 3.28,2.283 5.513,2.993 2.232,0.707 4.923,1.063 8.074,1.063 z" /></g><g
           transform="translate(647.29,281.8801)"
           id="g60"><path
             id="path62"
             style="fill:#2b2b2a;fill-opacity:1;fill-rule:nonzero;stroke:none"
             d="m 0,0 c 2.992,0 5.562,-0.434 7.718,-1.299 2.151,-0.868 3.922,-2.021 5.314,-3.467 1.389,-1.444 2.415,-3.137 3.07,-5.079 0.657,-1.943 0.986,-3.965 0.986,-6.064 0,-1.681 -0.211,-3.346 -0.63,-4.998 -0.422,-1.656 -1.076,-3.203 -1.969,-4.648 -0.892,-1.445 -2.05,-2.716 -3.467,-3.82 -1.417,-1.101 -3.15,-1.941 -5.196,-2.521 L 18.191,-53.157 H 7.872 l -12.126,20.554 h -13.86 c -0.893,0 -1.339,-0.447 -1.339,-1.339 v -19.215 h -9.293 v 21.025 c 0,2.992 0.657,5.148 1.969,6.459 1.311,1.312 3.439,1.969 6.378,1.969 H 0.313 c 1.312,0 2.444,0.208 3.386,0.63 0.946,0.418 1.705,0.97 2.285,1.652 0.577,0.682 1.011,1.47 1.299,2.362 0.288,0.894 0.435,1.815 0.435,2.757 0,1.892 -0.593,3.532 -1.774,4.924 -1.181,1.389 -3.057,2.087 -5.631,2.087 H -28.823 V 0 Z" /></g><g
           transform="translate(162.3857,180.5549)"
           id="g64"><path
             id="path66"
             style="fill:#2b2b2a;fill-opacity:1;fill-rule:nonzero;stroke:none"
             d="m 0,0 v 4.244 h -15.125 v -38.519 h 4.679 v 17.41 h 8.161 v 4.243 h -8.161 V 0 Z" /></g><g
           transform="translate(190.6772,172.6125)"
           id="g68"><path
             id="path70"
             style="fill:#2b2b2a;fill-opacity:1;fill-rule:nonzero;stroke:none"
             d="M 0,0 C 0,-1.741 -0.436,-2.938 -1.197,-3.809 -1.959,-4.57 -3.047,-5.006 -4.57,-5.006 H -7.617 V 7.942 h 3.59 c 1.415,0 2.395,-0.434 3.048,-1.196 C -0.327,5.875 0,4.679 0,3.047 Z m 4.896,-25.027 c 0,0.653 -0.108,1.631 -0.108,2.829 v 6.964 c 0,2.285 -0.327,4.134 -0.871,5.44 -0.544,1.197 -1.415,1.959 -2.72,2.395 l -0.544,0.108 v 1.088 l 0.435,0.327 c 2.502,0.979 3.7,3.264 3.7,7.182 v 2.393 c 0,2.938 -0.762,5.114 -2.068,6.42 -1.306,1.415 -3.482,2.068 -6.529,2.068 h -8.596 v -38.52 h 4.788 v 17.192 h 2.937 c 1.742,0 2.939,-0.544 3.701,-1.414 C -0.327,-11.426 0,-12.84 0,-14.799 v -7.399 c 0,-1.741 0.108,-2.613 0.108,-2.938 0.109,-0.435 0.218,-0.762 0.327,-1.197 h 4.788 c -0.218,0.435 -0.218,0.87 -0.327,1.306" /></g><g
           transform="translate(217.2275,158.0305)"
           id="g72"><path
             id="path74"
             style="fill:#2b2b2a;fill-opacity:1;fill-rule:nonzero;stroke:none"
             d="M 0,0 2.938,21.328 H 4.243 L 4.461,20.675 7.399,0 Z M 7.508,26.769 H 0.326 l -6.311,-38.52 h 4.244 l 1.197,7.834 h 8.411 l 1.164,-7.834 h 4.788 z" /></g><g
           transform="translate(261.188,184.799)"
           id="g76"><path
             id="path78"
             style="fill:#2b2b2a;fill-opacity:1;fill-rule:nonzero;stroke:none"
             d="M 0,0 V -23.938 H -1.306 L -1.523,-23.395 -7.508,0 h -6.529 v -38.52 h 4.026 v 29.163 h 1.415 l 0.217,-0.544 7.4,-28.619 h 5.114 l 0,38.52 z" /></g><g
           transform="translate(320.4912,184.799)"
           id="g80"><path
             id="path82"
             style="fill:#2b2b2a;fill-opacity:1;fill-rule:nonzero;stroke:none"
             d="M 0,0 -4.026,-28.618 H -5.332 L -5.55,-27.965 -9.358,0 h -7.617 v -38.52 h 4.026 v 30.25 h 1.306 l 0.217,-0.543 4.571,-29.707 h 3.917 l 4.57,30.25 H 3.046 L 3.155,-8.923 V -38.52 H 7.616 V 0 Z" /></g><g
           transform="translate(358.0312,154.6574)"
           id="g84"><path
             id="path86"
             style="fill:#2b2b2a;fill-opacity:1;fill-rule:nonzero;stroke:none"
             d="m 0,0 c 0,-4.135 -2.502,-4.787 -4.026,-4.787 -1.523,0 -4.026,0.652 -4.026,4.787 v 21.763 c 0,4.134 2.503,4.679 4.026,4.679 1.524,0 4.026,-0.545 4.026,-4.679 z m 2.503,28.292 c -1.524,1.632 -3.591,2.394 -6.529,2.394 -2.829,0 -5.005,-0.762 -6.529,-2.394 -1.523,-1.633 -2.285,-3.917 -2.285,-6.855 V 0.327 c 0,-2.938 0.762,-5.332 2.285,-6.855 1.524,-1.633 3.7,-2.394 6.529,-2.394 2.938,0 5.005,0.761 6.529,2.394 1.523,1.523 2.285,3.917 2.285,6.855 v 21.11 c 0,2.938 -0.762,5.222 -2.285,6.855" /></g><g
           transform="translate(392.3076,172.6125)"
           id="g88"><path
             id="path90"
             style="fill:#2b2b2a;fill-opacity:1;fill-rule:nonzero;stroke:none"
             d="M 0,0 C 0,-1.741 -0.326,-2.938 -1.088,-3.809 -1.959,-4.57 -3.046,-5.006 -4.461,-5.006 H -7.508 V 7.942 h 3.591 c 1.305,0 2.284,-0.434 3.046,-1.196 C -0.326,5.875 0,4.679 0,3.047 Z m 5.005,-25.027 c -0.109,0.653 -0.109,1.631 -0.109,2.829 v 6.964 c 0,2.285 -0.326,4.134 -0.87,5.44 -0.544,1.197 -1.524,1.959 -2.829,2.395 l -0.544,0.108 v 1.088 l 0.544,0.327 c 2.394,0.979 3.591,3.264 3.591,7.182 v 2.393 c 0,2.938 -0.653,5.114 -1.959,6.42 -1.414,1.415 -3.591,2.068 -6.638,2.068 h -8.487 v -38.52 h 4.788 v 17.192 h 2.938 c 1.632,0 2.829,-0.544 3.591,-1.414 0.761,-0.871 1.088,-2.285 1.088,-4.244 v -7.399 c 0,-1.741 0,-2.613 0.109,-2.938 0,-0.435 0.109,-0.762 0.217,-1.197 h 4.788 c -0.109,0.435 -0.218,0.87 -0.218,1.306" /></g><g
           transform="translate(430.0654,180.5549)"
           id="g92"><path
             id="path94"
             style="fill:#2b2b2a;fill-opacity:1;fill-rule:nonzero;stroke:none"
             d="M 0,0 V 4.244 H -15.668 V -34.275 H 0 v 4.243 h -10.881 v 13.711 h 8.705 v 4.243 h -8.705 V 0 Z" /></g><g
           transform="translate(460.751,184.799)"
           id="g96"><path
             id="path98"
             style="fill:#2b2b2a;fill-opacity:1;fill-rule:nonzero;stroke:none"
             d="M 0,0 V -23.938 H -1.306 L -1.632,-23.395 -7.617,0 h -6.529 v -38.52 h 4.135 v 29.163 h 1.306 l 0.218,-0.544 7.399,-28.619 h 5.223 l 0,38.52 z" /></g><g
           transform="translate(494.8086,154.6574)"
           id="g100"><path
             id="path102"
             style="fill:#2b2b2a;fill-opacity:1;fill-rule:nonzero;stroke:none"
             d="m 0,0 c 0,-4.135 -2.502,-4.787 -4.025,-4.787 -1.524,0 -4.027,0.652 -4.027,4.787 v 21.763 c 0,4.134 2.503,4.679 4.027,4.679 1.523,0 4.025,-0.545 4.025,-4.679 z m 2.504,28.292 c -1.524,1.632 -3.591,2.394 -6.529,2.394 -2.938,0 -5.005,-0.762 -6.529,-2.394 -1.523,-1.633 -2.286,-3.917 -2.286,-6.855 V 0.327 c 0,-2.938 0.763,-5.332 2.286,-6.855 1.524,-1.633 3.591,-2.394 6.529,-2.394 2.938,0 5.005,0.761 6.529,2.394 1.522,1.632 2.284,3.917 2.284,6.855 v 21.11 c 0,2.938 -0.762,5.222 -2.284,6.855" /></g><g
           transform="translate(552.4805,180.5549)"
           id="g104"><path
             id="path106"
             style="fill:#2b2b2a;fill-opacity:1;fill-rule:nonzero;stroke:none"
             d="m 0,0 v 4.244 h -15.125 v -38.519 h 4.788 v 17.41 h 8.052 v 4.243 h -8.052 V 0 Z" /></g><g
           transform="translate(580.7715,172.6125)"
           id="g108"><path
             id="path110"
             style="fill:#2b2b2a;fill-opacity:1;fill-rule:nonzero;stroke:none"
             d="M 0,0 C 0,-1.741 -0.435,-2.938 -1.196,-3.809 -1.958,-4.57 -3.047,-5.006 -4.57,-5.006 H -7.617 V 7.942 h 3.591 c 1.415,0 2.393,-0.434 3.047,-1.196 C -0.327,5.875 0,4.679 0,3.047 Z m 4.896,-25.027 c 0,0.653 -0.108,1.631 -0.108,2.829 v 6.964 c 0,2.285 -0.218,4.134 -0.871,5.44 -0.544,1.197 -1.414,1.959 -2.72,2.395 l -0.544,0.108 v 1.088 l 0.435,0.327 c 2.503,0.979 3.7,3.264 3.7,7.182 v 2.393 c 0,2.938 -0.653,5.114 -2.067,6.42 -1.306,1.415 -3.483,2.068 -6.529,2.068 h -8.596 v -38.52 h 4.787 v 17.192 h 2.938 c 1.741,0 2.939,-0.544 3.7,-1.414 C -0.327,-11.426 0,-12.84 0,-14.799 v -7.399 c 0,-1.741 0.109,-2.613 0.109,-2.938 0.109,-0.435 0.217,-0.762 0.327,-1.197 h 4.787 c -0.109,0.435 -0.217,0.87 -0.327,1.306" /></g><path
           id="path112"
           style="fill:#2b2b2a;fill-opacity:1;fill-rule:nonzero;stroke:none"
           d="m 602.86,146.279 h 4.788 v 38.52 h -4.788 z" /><g
           transform="translate(640.0752,161.4045)"
           id="g114"><path
             id="path116"
             style="fill:#2b2b2a;fill-opacity:1;fill-rule:nonzero;stroke:none"
             d="m 0,0 c -0.98,1.741 -2.721,3.809 -5.332,5.984 -2.067,1.85 -3.591,3.374 -4.353,4.68 -0.871,1.414 -1.305,2.938 -1.305,4.461 0,4.025 2.393,4.57 3.917,4.57 1.196,0 2.176,-0.327 2.937,-1.197 0.654,-0.762 0.98,-1.85 0.98,-3.482 V 13.71 h 4.352 v 0.979 c 0,2.939 -0.652,5.332 -2.067,6.965 -1.415,1.523 -3.483,2.284 -6.312,2.284 -2.829,0 -4.895,-0.761 -6.419,-2.393 -1.415,-1.524 -2.176,-3.809 -2.176,-6.746 0,-2.177 0.544,-4.244 1.414,-5.877 0.979,-1.85 2.83,-3.808 5.332,-6.093 2.067,-1.741 3.591,-3.373 4.352,-4.788 0.87,-1.306 1.306,-2.937 1.306,-4.788 0,-1.523 -0.436,-2.72 -1.088,-3.482 -0.653,-0.87 -1.632,-1.305 -2.937,-1.305 -1.524,0 -4.027,0.652 -4.027,4.679 v 1.959 h -4.462 V -6.42 c 0,-3.047 0.762,-5.332 2.177,-6.964 1.415,-1.524 3.482,-2.285 6.312,-2.285 2.937,0 5.004,0.761 6.528,2.394 1.523,1.523 2.177,3.917 2.177,6.963 C 1.306,-3.918 0.869,-1.851 0,0" /></g><g
           transform="translate(670.3242,154.6574)"
           id="g118"><path
             id="path120"
             style="fill:#2b2b2a;fill-opacity:1;fill-rule:nonzero;stroke:none"
             d="m 0,0 c 0,-4.135 -2.502,-4.787 -4.025,-4.787 -1.525,0 -4.027,0.652 -4.027,4.787 v 21.763 c 0,4.134 2.502,4.679 4.027,4.679 1.523,0 4.025,-0.545 4.025,-4.679 z m 2.503,28.292 c -1.524,1.632 -3.591,2.394 -6.528,2.394 -2.83,0 -5.115,-0.762 -6.53,-2.394 -1.523,-1.633 -2.285,-3.917 -2.285,-6.855 V 0.327 c 0,-2.938 0.762,-5.332 2.285,-6.855 1.524,-1.633 3.592,-2.394 6.53,-2.394 2.937,0 5.004,0.761 6.528,2.394 1.523,1.632 2.285,3.917 2.285,6.855 v 21.11 c 0,2.938 -0.762,5.222 -2.285,6.855" /></g><g
           transform="translate(706.3418,184.799)"
           id="g122"><path
             id="path124"
             style="fill:#2b2b2a;fill-opacity:1;fill-rule:nonzero;stroke:none"
             d="M 0,0 V -23.938 H -1.306 L -1.523,-23.395 -7.509,0 h -6.528 v -38.52 h 4.026 v 29.163 h 1.306 l 0.326,-0.544 7.4,-28.619 h 5.114 l 0,38.52 z" /></g></g></g></g></svg>