<?xml version="1.0" encoding="utf-8"?>
<!-- Generator: Adobe Illustrator 19.0.0, SVG Export Plug-In . SVG Version: 6.00 Build 0)  -->
<svg version="1.1" id="layer" xmlns="http://www.w3.org/2000/svg" xmlns:xlink="http://www.w3.org/1999/xlink" x="0px" y="0px"
	 viewBox="-153 -46 652 652" style="enable-background:new -153 -46 652 652;" xml:space="preserve">
<style type="text/css">
	.st0{fill:#FAC844;}
	.st1{fill:#120712;}
	.st2{fill:#E62831;}
	.st3{fill:#00469B;}
	.st4{fill:#FFFFFF;}
	.st5{clip-path:url(#SVGID_2_);}
	.st6{clip-path:url(#SVGID_4_);fill:#120712;}
	.st7{clip-path:url(#SVGID_6_);fill:#120712;}
</style>
<g>
	<polygon class="st0" points="42.1,159.3 316.5,474.1 311.2,478.7 35.8,162.9 	"/>
	<path class="st1" d="M311.1,479.4l-0.3-0.4L35,162.7l7.2-4l0.3,0.3l274.7,315.2L311.1,479.4z M36.6,163l274.6,315l4.5-3.9L42,160
		L36.6,163z"/>
	<polygon class="st0" points="306.6,180.5 83.5,435.8 78.3,431.2 314.5,160.2 319.8,164.7 	"/>
	<path class="st1" d="M83.6,436.5l-6-5.3l236.9-271.8l6.1,5.1L307,180.8L83.6,436.5z M79,431.2l4.5,3.9l222.8-254.9l12.8-15.4
		l-4.5-3.8L79,431.2z"/>
	<path class="st0" d="M43.6,472c-1.5,0.2-2.2,0.7-2.2,0.7s-17.9,19.2-26.5,28.8c-3.4,3.8,4.8,11.1,8.2,7.3
		c0.2-0.2,25.8-29.9,26-30.4c0.3-0.7-0.2-1.7-0.2-1.7L43.6,472z"/>
	<path class="st1" d="M20.6,510.4L20.6,510.4c-2.5,0-5.5-2.1-6.6-4.7c-0.7-1.7-0.6-3.3,0.5-4.4c8.6-9.5,26.4-28.7,26.6-28.9
		c0.1-0.1,0.9-0.6,2.5-0.8l0.2,0l5.5,4.9c0.1,0.1,0.7,1.3,0.2,2.2c-0.2,0.6-25.8,30.2-26,30.5C22.8,509.9,21.8,510.4,20.6,510.4
		 M43.5,472.5c-1.2,0.2-1.7,0.6-1.7,0.6c-0.1,0.1-17.9,19.3-26.5,28.8c-1,1.1-0.7,2.4-0.3,3.3c1,2.3,3.6,4.1,5.7,4.2
		c0.8,0,1.6-0.3,2.1-0.9c0.2-0.3,25.2-29.4,25.9-30.3c0.2-0.3-0.1-0.9-0.2-1.2L43.5,472.5z"/>
	<polygon class="st0" points="291.2,189.4 44,470.3 49.3,474.9 296.5,194 	"/>
	<path class="st1" d="M49.3,475.6l-6-5.3l0.3-0.4l247.5-281.3l6,5.3l-0.3,0.4L49.3,475.6z M44.7,470.2l4.5,4L295.7,194l-4.5-4
		L44.7,470.2z"/>
	<path class="st0" d="M318.6,166.2c1.2,0.4,2.1,0.8,4-1.2c1.1-1.2,4-5,6.6-7.5c1.3-1.2,2.8,0.4,3.4,1c2.5,2.1,10.6,11.4,25.4,17.2
		c6.3,2.5,11.2,3.4,16.7,3.5c6.6,0.2,11.4-0.5,16.6-4c4.6-3,7.5-10.1,6.9-17.1c-0.6-5.9-3-11.7-7.7-18.4
		c-7.9-11.1-26.5-28.4-52-15.9c-9.8,4.8-12.8,15.2-15.2,19.9c-2,3.9-4.4,6.8-7.9,11.6c-1.5,2-3.8,4.7-2.2,6.8
		c0.6,0.8,1.6,1.8,2.5,2.5C316.8,165.6,318.3,166.2,318.6,166.2"/>
	<path class="st1" d="M376.3,179.7c-0.6,0-1.1,0-1.7,0c-5.7-0.2-10.7-1.2-16.8-3.6c-12.6-4.9-20.3-12.3-24-15.8
		c-0.7-0.6-1.2-1.1-1.5-1.4l-0.2-0.2c-0.6-0.6-1.7-1.5-2.5-0.8c-1.8,1.7-3.7,4-5.1,5.7c-0.6,0.8-1.1,1.4-1.5,1.7
		c-1.1,1.2-2,1.7-3,1.7c-0.5,0-1-0.2-1.4-0.3c-0.1,0-1.9-0.6-3.3-1.7c-0.9-0.7-2-1.8-2.6-2.6c-1.7-2.3,0.3-4.9,1.7-6.8l0.4-0.6
		c0.8-1.1,1.5-2,2.2-2.9c2.4-3.3,4.2-5.6,5.7-8.6c0.4-0.8,0.8-1.8,1.3-2.9c2.3-5.3,5.8-13.2,14.1-17.2c6-2.9,11.9-4.4,17.8-4.4
		c18.4,0,30.5,14.3,34.9,20.5c4.7,6.7,7.2,12.6,7.8,18.7c0.7,7.1-2.2,14.4-7.1,17.6C386.4,179,381.7,179.7,376.3,179.7 M330.2,156.6
		c1.1,0,1.9,0.8,2.5,1.3l0.2,0.2c0.4,0.3,0.9,0.8,1.6,1.5c3.7,3.5,11.3,10.8,23.7,15.6c6,2.3,11,3.4,16.5,3.5
		c6,0.1,10.9-0.3,16.3-3.9c4.5-2.9,7.3-9.9,6.6-16.6c-0.6-5.9-3-11.6-7.6-18.2c-4.3-6-16.2-20.1-34.1-20.1c-5.7,0-11.5,1.4-17.3,4.3
		c-7.9,3.9-11.3,11.6-13.6,16.7c-0.5,1.1-0.9,2.1-1.4,3c-1.6,3-3.4,5.5-5.8,8.7c-0.7,0.9-1.4,1.9-2.2,3l-0.5,0.6
		c-1.4,1.9-2.9,4-1.7,5.6c0.6,0.7,1.5,1.7,2.4,2.4c1.3,1,2.8,1.5,2.8,1.5c0.5,0.2,0.9,0.3,1.2,0.3c0.4,0,1.1-0.2,2.2-1.4
		c0.4-0.4,0.8-1,1.5-1.7c1.4-1.7,3.3-4,5.2-5.8C329.2,156.8,329.7,156.6,330.2,156.6"/>
	<path class="st0" d="M37.8,167.2c-0.3-0.4-23.7-25-23.9-25.1c-0.2-0.2-2.5-1.9-4.3,0c-1.8,1.9-5.8,7.7-7.6,9.7
		c-1.8,1.9-8,5.8-10.6,7.3c-2.6,1.5-19.6,10.8-19.6,10.8s-11.4,5.3-13.8,5.9c-2.4,0.6-6.2,0.9-9.5-3c-3.3-3.9-6.8-11.6-8.5-21.7
		c-1.6-9.9,6.1-20.8,14-22.1c0,0,21.9-5.9,50.8-2.7c2.3,0.2,10,1,18.3,9.4c9.1,9.2,21.8,24.5,22.3,25.2c0.5,0.7,0.4,3.3-1.7,5.2
		C41.5,168,38.5,167.9,37.8,167.2"/>
	<path class="st1" d="M-44.7,176.6c-2.8,0-5.2-1.2-7.2-3.6c-3-3.5-6.7-11.1-8.5-21.9c-1.8-10.6,6.4-21.3,14.4-22.7
		c0.1,0,13.8-3.6,33.5-3.6c5.8,0,11.7,0.3,17.4,0.9c2.6,0.3,10.3,1.1,18.6,9.5c9.2,9.4,21.9,24.6,22.4,25.3c0.7,1.1,0.4,3.9-1.8,5.9
		c-1.8,1.6-3.8,1.7-4.5,1.7c-0.9,0-1.7-0.2-2.1-0.6c-0.1-0.1-2.6-2.7-6.9-7.2c-6.6-7-16.7-17.6-17.1-17.9c-0.1,0-1-0.7-2-0.7
		c-0.6,0-1.1,0.2-1.6,0.7c-0.8,0.9-2.3,2.8-3.6,4.6c-1.5,2-3,4-3.9,5c-1.8,1.9-8,5.8-10.8,7.4C-11,160.9-28,170.3-28,170.3
		c-0.5,0.2-11.5,5.3-13.9,5.9C-42.8,176.5-43.8,176.6-44.7,176.6 M-12.5,125.8c-19.5,0-33.2,3.6-33.3,3.6
		c-7.4,1.2-15.2,11.6-13.6,21.5c1.7,10.6,5.4,18,8.3,21.4c2.4,2.8,5.5,3.8,8.9,2.8c2.3-0.6,13.6-5.8,13.7-5.9c0,0,17-9.4,19.6-10.8
		c2.8-1.5,8.8-5.3,10.5-7.2c0.9-1,2.4-3,3.9-4.9c1.5-1.9,2.8-3.8,3.7-4.7c0.6-0.7,1.4-1.1,2.3-1.1c1.3,0,2.4,0.8,2.6,1
		c0.1,0.1,3.8,4,17.1,18c3.6,3.8,6.7,7.1,6.8,7.2c0.2,0.1,0.7,0.3,1.4,0.3c0.7,0,2.3-0.2,3.8-1.5c1.9-1.7,1.9-4,1.6-4.5
		c-0.5-0.7-13.3-16-22.3-25.1c-8-8.1-15.4-8.9-17.9-9.2C-0.9,126.1-6.7,125.8-12.5,125.8"/>
	<path class="st0" d="M314.3,471.5c1.5,0.2,2.2,0.7,2.2,0.7s17.9,19.2,26.6,28.8c3.4,3.8-4.8,11.1-8.2,7.3
		c-0.2-0.2-25.7-29.9-26-30.4c-0.3-0.8,0.2-1.8,0.2-1.8L314.3,471.5z"/>
	<path class="st1" d="M337.3,509.9c-1.1,0-2.1-0.4-2.8-1.2c-0.2-0.3-25.8-30-26-30.5c-0.4-1,0.2-2.1,0.3-2.2l0.1-0.1l5.4-4.8l0.2,0
		c1.6,0.2,2.4,0.7,2.5,0.8c0.2,0.2,18,19.4,26.6,28.9c1.1,1.2,1.2,2.7,0.5,4.4C342.8,507.7,339.8,509.9,337.3,509.9 M309.6,476.5
		c-0.1,0.3-0.3,0.9-0.2,1.2c0.6,0.9,25.6,30,25.9,30.3c0.6,0.6,1.2,0.9,2.1,0.9c2.1,0,4.7-1.9,5.7-4.1c0.4-0.9,0.7-2.3-0.3-3.4
		c-8.5-9.4-26.2-28.4-26.6-28.8c0,0-0.5-0.3-1.7-0.5L309.6,476.5z"/>
	<path class="st2" d="M294.5,180.7c17.6,8.6,23,16.3,24.3,34.8c1.3,42.5,0.9,150.4-1.3,165.1c-2.7,18.2-10.1,53.9-58.1,60.2
		c-48,6.3-42.6,0.7-78.4,23.8c-0.9,0.6-1.7,0.9-2.5,1.1c-0.2,0.1-0.4,0.1-0.6,0.1c-0.2,0-0.4,0-0.6,0c-0.8-0.3-1.6-0.6-2.5-1.1
		c-35.8-23.1-30.4-17.5-78.4-23.8c-48-6.3-55.4-42-58.1-60.2C36,365.8,35.6,257.9,37,215.5c1.3-18.5,6.7-26.2,24.3-34.8
		c35.5-14.2,77-20.3,116-20.8h1.4C217.5,160.4,259,166.5,294.5,180.7"/>
	<path class="st0" d="M169,211.9l5.2,1.6c-1.4,2.1,0.8,1.9,0.8,1.9c1.9,0,5.7-3.2,5.7-3.2l-3.2-1.7C173.9,207.4,169,211.9,169,211.9
		 M147.8,211.6c0-1-3-5.4,4.9-6.1c0,0,24.7-3,28.7-3.7c0,0,8.4-1.4,10.2-3.2c0,0,3.5-1.9,3.5,2.8v3c0,0,6.7,4.2,11.6,11.4
		c0,0,7.3,5.1,11,5.4c0,0,1.9,2.1-5.2,2.1h-5.1c0,0,1.2,7.4,12.6,8.1c0,0-0.4,1.8-5.8,3.9l-4.7-0.4c0,0-0.7,4.2,5.8,10.2
		c0,0,6.3,3.2,9.3,2.1c0,0-0.2,8.6-10.3,8.9c0,0-6.5,0.9,0.7,3.7c0,0,5.9,1.9,9.6,0.3c0,0-1.1,7.9-10.3,7.5c0,0-9.5-1.2-4.7,2.5
		c0,0,8.6,3.9,13.6,1.4c0,0-1.7,8.8-15.4,9.8l-6.5-0.3c0,0,0,3.7,13,5.6c0,0-9.1,4.2-17.7,0c0,0-9.6-7-10.7-10.3
		c0,0-0.8-2.8-3.3,0.3c0,0-9.7,8.9-11.4,10c0,0-3.1-1.1-1.7-10.3c0,0-1.6-1.6-3.7,2.5c0,0-5.6,11.2-10.3,12.3c0,0-5.6-4-1.1-12.6
		l4.2-8.2c0,0-2.8-6.3-2.5-8.9c0,0,1.6-5.4,5.4-6.8c0,0,2.1-3.3-3.3-3.3c0,0-6.8-1.4-8.2-2.8c0,0,11.5-2.3,14.4-4.4
		c0,0,2.8-2.1-4-2.1l-9.6-4.4l12.6-1.1c0,0,4.4-3.3,5.8-5.6c0,0,0-4.2-5.5,0c0,0-1.4,2.5-6.8,1.7c0,0,0,1.5,0.7,2.2
		c0.6,0.2,0.9,0.3,0.9,0.3h-0.2c-0.3,0-0.6-0.1-0.7-0.3c-1.4-0.6-4.2-2.4-5.1-8c0,0-2.1-4.7,4-4.7c0,0,3.7-0.3,5.5-2.1
		c0,0,2.4-3-5.5-3.5h-6.5C149.9,216.3,147.8,212.7,147.8,211.6 M135.5,213.8c-1.3-0.8,3.9-0.7,9.7,3.9c0,0,7,1.4,11.6,1.1
		c0,0-6,4.6-14.4,0.7c-1.5-0.7-3.3-2.8-3.3-2.8S138.9,215.8,135.5,213.8 M183.7,280.5c0,0,34.3,22.4,40.1,25.2
		c0,0,16.1,7.2,22.3,22.6l1.4,3.3c0,0,6.7-7.9,1.2-21.2c0,0-12.3-34.3-13-36.6c-0.7-2.3-10.9-23.3,3.5-43.1c0,0,12.6-13,12.6-17.7
		c0,0,6.5,4.5,1.1,15.8c0,0,6.3,11.2,1.7,18.1c0,0-2.1,0.4-3.2-4.4c0,0-2.1-8.6-7.9-2.1c-5.8,6.5-5.6,11.4-2.8,25.7
		c0,0,8.8,31,12.5,37.5c0,0,10,21.6,1.9,38.4c0,0,3.5,2.1,10,2.8c0,0-5.6,6.5-18.8,5.8c0,0-6.5-3,0.3,2.6c0,0,4.9,2.8,6.8,2.5
		c0,0-12.5,9.8-32.6-8.6c0,0-13.5,10.4-15,10.4l-9.5-1.1c0,0,13.5-15.3,7.2-27c0,0-6.1-11.2-21.2-14.7c0,0-21.1-8.4-25.4-20.8
		l9.6-10.7c0,0,1.7,2.6,0.3,5.8c0,0-0.3,4,6.1,0L183.7,280.5z M154.1,333.7c0,0,5.3-15.3,14.9-12.3c0,0,7.7-0.3,20,5.8
		c0,0,11.6,4.4,13.3,4.4c0,0,3.2,10.8-5.4,20.3c0,0-1.9,2.8-7.2-0.7c0,0-10.8-9.8-13.5-7.5c0,0-5.4,0.7,2.8,12.6l-6.1,1.7
		c0,0,0.2,4.4,4,5.1c3.9,0.7-5.8,2.8-5.8,2.8s-1.9,3.3,2.5,4.4c0,0,0.9,1.7-4.5,2.5l-3.7-0.4c0,0,2.3,6.5,4.7,6.8c0,0,0.2,2.5-8.2-1
		c0,0-8.2,3.7-12.3-1.1c0,0-3-0.7-5.4,1.1c0,0-7.9-4.7-9.3-0.4c0,0-3,2.5-5.1,2.1l2.4-4.5c0,0-1.6-2.8-4.2,0c0,0-5.9-3-1.1-4.7
		c0,0,3.5-3.7-3-4.4c0,0,2.7-3.1,5.1-3.5c0,0,1.2-1.9-2.8-3c0,0,2.2-3.7,12.4,0.9c0,0,10.3,6.6,13-3.3c0,0,0.2-17.7,1.7-20.5
		L154.1,333.7z M204.4,360.4c0,0,16.6-7,18-9.1c0,0,8.7,9.3,17.5,8.6c0,0,0.7,8.8,11.9,11.2c0,0,1.2,1.6-2.8,4.4l-3,1.8
		c0,0,4.1,6.2,7.5,6.7l-7.1,6.6l2.6,3.1l-7.2,5.1c0,0-0.7,3.2,1.1,8.6c0,0,0.5,2.1-4.4,0.3c0,0-13.8-0.6-19.7,3.6l-12.8,1.2
		c0,0-3.2-0.9,1-4c0,0,2.3-4.2-2.1-1.4c0,0-3.3,1.7-4.7,1.1c0,0,0.1-6.5,5.1-7.9c0,0,3.3-2.1-2.3-2.8c0,0-3.9-3,4-3.3l18.9,0.7
		c0,0,4.8-18-1.6-25.9C220,363.6,204.4,360.4,204.4,360.4 M96.1,239.9c4.1-4.8,1.6-6.1,1.6-6.1c-1.1,0-2.2-1.5-2.2-1.5l3.3-3.3
		c2.2-2.5-0.8-4.7-0.8-4.7c-3-0.8-1.9-2.8-1.9-2.8c3.4-1,7.6,0.7,7.6,0.7c1.9,1.5,3-2.4,3-2.4c3.8-1.5,7.8,3.9,7.8,3.9
		c2.1,5.1,14.5,14.8,14.5,14.8c6.7,4.8,9.5,3.3,9.5,3.3c4.5-1.2,6.6,3.3,6.6,3.3c0.1,3,7.2,9.9,7.2,9.9c2.8-0.1,3.3,1.5,3.3,1.5
		c-3.6,5.5-1.6,8.7-1.6,8.7c2.4,2.7,1.5,4.6,1.5,4.6c-3.9,3.6-9.9-1.2-9.9-1.2c-3.9,0-5.4-3.1-5.4-3.1c-6.2,0.5-8.1-4.5-8.1-4.5
		c-0.4-5.1-6.3-7.3-6.3-7.3c-4.6-0.9-10.9-9.4-10.9-9.4c-10.3-7.3-20.2-1.4-20.2-1.4L96.1,239.9z M153.1,274.2
		c0.9-0.1,0.9,0.6,0.9,0.6c0.2,1.1-1.3,2.4-1.3,2.4c-3,6.4-1.7,17.7-1.7,17.7l-11.1-3.2c-1.1,1-5.8,2.4-5.8,2.4
		c-3-0.6-3.9-5.7-3.9-5.7l-1.7-0.6c-1.3,1.6-4.2,1.2-4.2,1.2c-1.6-0.2-3.8-6.6-3.8-6.6c-0.3-2.8-1.5-3-1.5-3H112
		c-4.1-1-3.1-3.4-3.1-3.4l-0.8-2.5l-7.2-3c-2.7-1.6-4.2,0.9-4.2,0.9c-0.6,1.1-1.6,1.7-1.6,1.7c-1.8,0-1.3-2.9-1.3-2.9
		c-1.8-1.5-1.1-4.5-1.1-4.5c-1.4-3-3.3-1-3.3-1c-3.4,0-2.9-1.3-2.9-1.3l4.3-5.5c1.5-0.5,0.6-1.2,0.6-1.2c-0.2-0.9-3.3-2.6-3.3-2.6
		c-1.3,0-1.5-0.9-1.5-0.9c1.2-2.4,6.4-2.8,6.4-2.8c3.7,0.5,3-1.5,3-1.5c1.1-6.1,11,3.7,11,3.7c10.2,11.2,24.4,18,24.4,18
		C146.7,277.8,152.2,274.3,153.1,274.2"/>
	<path class="st0" d="M178,457.6c-0.1,0-0.3,0-0.4,0l-0.3-0.1c-1-0.3-1.8-0.7-2.7-1.3c-26.5-17.1-28.8-17.3-50.9-19.6
		c-5.8-0.6-13.1-1.3-22.4-2.6c-43.4-5.7-52.8-35.8-56-58c-2.2-14.6-2.4-117.6-1.2-155.8c1.2-18,6.6-25.7,23.7-34
		c39.3-15.7,81.5-19.4,109.9-19.8h1.3c28.5,0.4,70.6,4.1,109.8,19.7c17.3,8.4,22.6,16.1,23.8,34c1.2,38.3,1,141.3-1.2,155.9
		c-3.3,22.2-12.7,52.3-56,58c-9.4,1.2-16.6,2-22.4,2.6c-22.1,2.3-24.4,2.5-50.9,19.6c-0.9,0.6-1.8,1-2.7,1.2
		c-0.3,0.1-0.6,0.2-0.9,0.2H178z M178,454.7L178,454.7h0.3h0.1l0.2,0c0.6-0.1,1.2-0.4,1.8-0.8c27.1-17.5,29.5-17.7,52.2-20.1
		c5.8-0.6,13-1.4,22.3-2.6c41.4-5.4,50.4-34.3,53.5-55.5c2-13.2,2.5-114.5,1.2-155.3c-1.1-16.8-5.9-23.6-22-31.5
		c-38.7-15.4-80.5-19.1-108.6-19.5h-1.3c-28.2,0.4-69.9,4.1-108.7,19.5c-16.1,7.8-20.8,14.6-22,31.5c-1.3,40.7-0.8,142,1.2,155.2
		c2,13.5,7.4,49.5,53.5,55.5c9.3,1.2,16.5,2,22.3,2.6c22.7,2.4,25.1,2.6,52.2,20.1C176.8,454.2,177.3,454.5,178,454.7"/>
	<path class="st3" d="M233.1,478.8v-11.1l-0.3-7.7c36.3-2.7,58.5-4.6,83.5-28.7c28.1-27.2,18.4-96.6,19.5-128.1
		c1.1-31.8,16.6-62.5,15.2-52.9c-1.4,9.6,3.2,36.5,6.2,33c14.6-17.1,27.7-22.9,26.4-19.7c-18,43.2-1.8,68.2-13.8,146.8
		c-8.3,54.5-56.7,75.2-85.6,82.8v5.2c0,2.7-2,5.7-6.4,7.6c-86.5,36.7-184.8,7.8-199,0c-4.3-2.3-6.4-4.9-6.4-7.6v-5
		c-29-7.5-78-28.1-86.4-83c-12.1-78.6,4.2-103.6-13.8-146.8c-1.3-3.3,11.8,2.6,26.4,19.7c3,3.5,7.6-23.4,6.2-33
		c-1.4-9.6,14.1,21.1,15.2,52.9c1.1,31.4-8.6,100.9,19.5,128.1c25,24.1,47.2,26,83.5,28.7l0,0.9c0.3-0.5,0.4-1.1,0.4-1.7v18.6
		C153.8,483.8,193.8,487,233.1,478.8"/>
	<path class="st4" d="M-12.3,334.4l23.3-0.8l0.4,12.2l-3.8,0.1L7.4,338l-5.5,0.2l0.3,7.4l-3.7,0.1l-0.3-7.4l-10.3,0.4L-12.3,334.4z
		 M-11,361.8l3.9-0.2l-0.4-7.8l6.4-0.3l0.4,7.1l3.7-0.2l-0.4-7.1l5.4-0.3l0.4,7.6l3.9-0.2l-0.6-12l-23.3,1.2L-11,361.8z M9.3,367.9
		l0.2,1.8c0.1,0.8,0.1,1.5,0,1.9c0,0.4-0.2,0.8-0.4,1c-0.5,0.5-1.2,0.9-2.2,1.2c-1,0.3-2.6,0.5-4.9,0.7c-2.3,0.2-4,0.3-5.1,0.2
		c-1.1-0.1-1.9-0.3-2.6-0.6c-0.3-0.2-0.6-0.5-0.8-0.9c-0.2-0.4-0.3-1-0.4-2l-0.2-1.9L9.3,367.9z M-10.4,371.3c0.2,2.3,0.5,4,1,4.9
		c0.4,0.9,1.2,1.6,2.2,2.1c1,0.5,2.2,0.8,3.6,0.9c1.4,0.1,3.7,0,7-0.3c2.6-0.2,4.4-0.6,5.6-1c1.2-0.4,2.1-1.1,2.9-2
		c0.5-0.6,0.8-1.3,1-2.2c0.2-0.9,0.2-2,0.1-3.4l-0.6-7l-23.2,2L-10.4,371.3z M-7.7,395.8l3.9-0.5l-0.9-7.8l6.4-0.8l0.9,7.1l3.7-0.4
		l-0.9-7.1l5.4-0.6l0.9,7.6l3.8-0.5L14,380.9l-23.2,2.8L-7.7,395.8z M13.5,399.9l0.4,2.1c0.3,1.4,0.3,2.4-0.1,3
		c-0.3,0.6-1.1,1.1-2.2,1.3c-1.3,0.3-2.2,0.2-2.8-0.2c-0.6-0.4-1-1.1-1.3-2.4L7,401.2L13.5,399.9z M-6.2,404l10-2.1l0.3,1.5
		c0.4,1.7,0.3,2.9,0,3.6c-0.4,0.7-1.2,1.1-2.5,1.4L1,408.5l-2.4,0.6c-0.9,0.2-1.7,0.4-2.2,0.6c-0.5,0.2-0.9,0.4-1.3,0.6l1.1,5
		c0.3-0.4,0.7-0.8,1.2-1.1c0.5-0.3,1.1-0.6,2-0.8l3-0.8c0.1,0,0.2,0,0.3-0.1c2.9-0.7,4.3-2.1,4.5-4.2c0.4,1,1,1.7,2,2.1
		c1,0.4,2.2,0.4,3.7,0.1c2.1-0.4,3.5-1.3,4.2-2.5c0.7-1.2,0.8-3,0.4-5.3l-1.6-7.6L-7,399.9L-6.2,404z M17.4,418.1l-8.4,5.3l-1.3-3.5
		L17.4,418.1z M-1.8,421.5l5.9-1.1l1.8,4.7l-5.1,3.2l1.7,4.4l19.9-13.3l-2.1-5.4l-23.7,3.4L-1.8,421.5z M16.1,439.8
		c-1.7,1-2.9,1.5-3.7,1.5c-0.8,0-1.5-0.4-1.9-1.2c-0.5-0.9-0.5-1.7,0.1-2.5c0.6-0.8,2.7-2.3,6.3-4.4c3.3-2,5.5-3.1,6.4-3.2
		c0.9-0.1,1.7,0.3,2.2,1.2c0.4,0.7,0.5,1.4,0.1,2.1c-0.3,0.7-1,1.3-2.1,2l-0.5,0.3l2.2,3.6c2.3-1.4,3.8-2.9,4.2-4.5
		c0.5-1.5,0.2-3.3-1.1-5.4c-0.7-1.2-1.6-2.1-2.4-2.7c-0.9-0.6-2-0.8-3.2-0.8c-0.8,0-1.9,0.3-3.2,0.9c-1.3,0.6-3,1.5-5.1,2.7
		c-3,1.8-5.1,3.2-6.1,4.2c-1.1,1-1.7,2-2,3.1c-0.2,0.8-0.3,1.6-0.1,2.5c0.2,0.8,0.5,1.7,1.1,2.7c1.2,2,2.6,3.2,4.3,3.5
		c1.7,0.3,3.7-0.2,6-1.6c0.1-0.1,0.2-0.1,0.4-0.3c0.2-0.1,0.3-0.2,0.4-0.2l-2.2-3.6L16.1,439.8z M17.7,454.8l17.9-15l-2.8-3.3
		l-17.9,15L17.7,454.8z M31.8,452.7c2.5-2.9,4.3-4.6,5.3-5.1c1-0.5,1.9-0.3,2.8,0.5c0.9,0.8,1.2,1.7,0.9,2.7c-0.3,1-1.7,3-4.3,5.9
		c-2.5,2.9-4.3,4.6-5.3,5.1c-0.9,0.4-1.9,0.3-2.8-0.5c-0.9-0.8-1.2-1.7-0.9-2.7C27.9,457.6,29.3,455.6,31.8,452.7 M28.5,449.8
		c-1.6,1.9-2.8,3.4-3.6,4.7c-0.8,1.3-1.3,2.3-1.4,3.2c-0.2,1.2-0.1,2.3,0.3,3.3c0.4,1,1.2,1.9,2.3,3c1.2,1,2.3,1.7,3.3,1.9
		c1,0.3,2.1,0.2,3.3-0.1c0.9-0.3,1.9-0.9,3-1.8c1.2-1,2.5-2.4,4.2-4.2c1.6-1.9,2.8-3.4,3.6-4.7c0.8-1.3,1.2-2.4,1.4-3.3
		c0.2-1.2,0.1-2.3-0.4-3.3c-0.4-1-1.2-1.9-2.3-2.9c-1.2-1-2.2-1.7-3.3-1.9c-1-0.3-2.1-0.2-3.3,0.1c-0.9,0.2-1.9,0.8-3,1.8
		C31.5,446.5,30.1,448,28.5,449.8 M43,444.4l6.3-0.2l-2.9-2.5l-4.8,1.5L43,444.4z M40.5,473.5l7.8-14.4l-2.6,17.3l3.9,2.1L61,458.2
		l-3.6-2l-7.8,14.3l2.6-17.2l-3.9-2.1L37,471.5L40.5,473.5z M119.9,512.4l0.8-4l-8.1-1.7l1.4-6.6l7.4,1.6l0.8-3.8l-7.4-1.6l1.2-5.6
		l7.9,1.7l0.8-4l-12.4-2.6l-5.1,24.1L119.9,512.4z M123.9,504.6c-0.1,0.6-0.2,1.1-0.3,1.4c-0.3,2.6,0,4.6,1,6c1,1.4,2.8,2.3,5.2,2.7
		c2.4,0.3,4.3,0,5.7-1c1.4-1,2.3-2.6,2.6-4.9c0.2-1.6,0.1-3-0.4-4.1c-0.5-1.1-1.5-2.4-3.2-3.9l-2.3-2l0,0c-1.7-1.5-2.5-2.8-2.3-3.8
		c0.1-0.8,0.4-1.3,0.9-1.7c0.5-0.4,1.1-0.5,1.8-0.4c1,0.1,1.7,0.5,2,1.1c0.3,0.6,0.4,1.6,0.2,2.9l-0.1,0.6l4.3,0.6
		c0-0.1,0.1-0.2,0.1-0.3c0-0.1,0.1-0.3,0.1-0.5c0.3-2.3,0-4.2-1.1-5.6c-1-1.4-2.7-2.3-4.9-2.6c-2.1-0.3-3.9,0-5.3,1
		c-1.4,1-2.2,2.5-2.5,4.5c-0.2,1.4-0.1,2.5,0.3,3.5c0.4,1,1.5,2.3,3.3,4l2.1,2c1.1,1,1.7,1.8,2,2.3c0.3,0.6,0.4,1.2,0.3,1.9
		c-0.1,0.9-0.5,1.6-1.1,2c-0.6,0.4-1.3,0.5-2.3,0.4c-0.9-0.1-1.5-0.5-1.8-1.1c-0.3-0.6-0.3-1.6-0.1-3.1l0.2-1.6L123.9,504.6
		L123.9,504.6z M147.5,495.1l2,0.2c1.5,0.2,2.5,0.5,2.9,1.1c0.5,0.6,0.6,1.5,0.5,2.9c-0.1,1.4-0.5,2.3-1.2,2.8
		c-0.6,0.5-1.6,0.7-3,0.5l-1.9-0.2L147.5,495.1z M145.5,516.2l1.1-10.4l3.3,0.3c2.3,0.2,4.1-0.2,5.3-1.2c1.3-1.1,2-2.8,2.3-5.2
		c0.3-2.4-0.1-4.3-1-5.5c-0.9-1.2-2.6-1.9-5-2.2l-7.9-0.8l-2.6,24.5L145.5,516.2z M166.2,497.2l1.6,10.4l-3.9-0.1L166.2,497.2z
		 M161.6,517.2l1.4-6.1l5.3,0.2l1,6.2l4.9,0.2l-4.7-24.8l-6.2-0.2l-6.4,24.4L161.6,517.2z M180.9,517.7l-0.4-17.2l6.8,17.1l4.7-0.1
		l-0.4-24.6l-4.3,0.1l0.4,17.2l-6.7-17.1l-4.7,0.1l0.5,24.6L180.9,517.7z M180.7,490.9c0.1-0.4,0.2-0.7,0.4-0.8
		c0.2-0.2,0.5-0.3,0.8-0.3c0.1,0,0.2,0,0.3,0c0.1,0,0.2,0,0.3,0.1l1.9,0.5c0.1,0,0.3,0.1,0.4,0.1c0.1,0,0.3,0,0.4,0
		c0.8,0,1.4-0.4,1.9-1c0.5-0.7,0.8-1.6,1-2.8l-1.4,0c-0.1,0.4-0.2,0.7-0.4,0.9c-0.2,0.2-0.4,0.3-0.8,0.3c-0.2,0-0.3,0-0.4,0
		c-0.1,0-0.3,0-0.4-0.1l-1.8-0.5c-0.2,0-0.3-0.1-0.5-0.1c-0.2,0-0.3,0-0.5,0c-0.7,0-1.3,0.3-1.8,1c-0.5,0.6-0.8,1.6-1,2.8
		L180.7,490.9 M199.5,504.8c-0.3-4.1-0.2-6.7,0.2-7.7c0.4-1.1,1.2-1.6,2.5-1.7c1.3-0.1,2.1,0.4,2.7,1.4c0.5,1,0.9,3.6,1.2,7.6
		c0.3,4.1,0.2,6.6-0.2,7.7c-0.4,1-1.2,1.6-2.5,1.7c-1.3,0.1-2.2-0.4-2.8-1.4C200.1,511.3,199.7,508.8,199.5,504.8 M194.8,505.1
		c0.2,2.6,0.4,4.7,0.8,6.2c0.3,1.5,0.8,2.7,1.4,3.4c0.8,1.1,1.7,1.8,2.7,2.2c1,0.4,2.3,0.6,4,0.4c1.6-0.1,2.9-0.4,3.9-1
		c0.9-0.5,1.7-1.4,2.4-2.6c0.5-0.8,0.8-2.1,0.9-3.6c0.1-1.6,0.1-3.7,0-6.2c-0.2-2.6-0.4-4.7-0.8-6.2c-0.3-1.5-0.8-2.7-1.4-3.5
		c-0.8-1.1-1.7-1.8-2.7-2.2c-1-0.4-2.3-0.6-4-0.4c-1.6,0.1-2.9,0.4-3.8,1c-0.9,0.6-1.7,1.4-2.4,2.6c-0.5,0.8-0.8,2-0.9,3.6
		C194.6,500.4,194.6,502.5,194.8,505.1 M228,514.2l-0.5-4.2l-8.2,1l-2.5-20.3l-4.5,0.6l3,24.4L228,514.2z M234.1,492.4l3.7,9.8
		l-3.8,0.7L234.1,492.4z M233.9,513l0.1-6.3l5.2-0.9l2.3,5.9l4.8-0.8l-9.8-23.3l-6.1,1.1l-1.2,25.2L233.9,513z M301.2,457.9l1.6-0.9
		c0.7-0.4,1.3-0.7,1.7-0.8c0.4-0.1,0.7-0.1,1.1,0c0.7,0.2,1.3,0.7,2,1.5c0.7,0.8,1.6,2.1,2.6,4c1.1,1.9,1.9,3.4,2.2,4.4
		c0.4,0.9,0.5,1.8,0.5,2.5c0,0.4-0.2,0.8-0.4,1.1c-0.3,0.3-0.8,0.7-1.6,1.2l-1.6,0.9L301.2,457.9z M312.3,473.8
		c2-1.1,3.3-2.1,3.9-2.9c0.6-0.8,0.9-1.7,0.9-2.8c0-1.1-0.2-2.2-0.7-3.5c-0.5-1.2-1.5-3.3-3.1-6c-1.2-2.2-2.3-3.7-3.2-4.5
		c-0.9-0.9-1.8-1.4-2.9-1.7c-0.7-0.2-1.5-0.2-2.3,0c-0.8,0.2-1.8,0.7-3,1.3l-5.8,3.4l11.3,19.6L312.3,473.8z M332.6,459l-2.4-2.9
		l-5.8,4.9l-4-4.8l5.3-4.4l-2.3-2.7l-5.3,4.4l-3.4-4l5.7-4.8l-2.4-2.9l-8.9,7.4l14.5,17.3L332.6,459z M365.8,383.2l-12.3-0.7
		l-0.4,6.9l3.6,0.2l0.2-2.9l0.8,0c1.8,0.1,3.1,0.4,3.8,1c0.8,0.5,1.1,1.3,1,2.4c-0.1,1.1-0.7,1.9-1.7,2.2c-1.1,0.4-3.2,0.5-6.4,0.3
		c-4.1-0.2-6.5-0.6-7.4-1.1c-0.9-0.5-1.3-1.4-1.3-2.6c0-1,0.4-1.7,1.2-2.2c0.7-0.5,1.8-0.7,3.1-0.6l0.2,0l0.2-3.9l-0.6,0
		c-2.4-0.1-4.2,0.3-5.4,1.4c-1.2,1.1-1.9,2.8-2,5.3c-0.1,1.4,0.1,2.6,0.4,3.6c0.4,1,1,1.8,1.9,2.4c0.7,0.5,1.7,0.9,3.1,1.3
		c1.3,0.3,3.1,0.5,5.3,0.6c4.8,0.3,8.1,0,9.9-0.9c1.8-0.9,2.8-2.5,3-4.8c0.1-1.3-0.1-2.3-0.5-3.1c-0.4-0.8-1.2-1.4-2.2-1.9l2.5-0.2
		L365.8,383.2z M355.6,373.5c-3.8-0.1-6.1-0.4-7-0.9c-1-0.5-1.4-1.3-1.4-2.4c0.1-1.2,0.6-1.9,1.5-2.3c0.9-0.4,3.3-0.6,7.1-0.4
		c3.7,0.1,6.1,0.4,7,0.9c0.9,0.5,1.4,1.3,1.3,2.4c0,1.2-0.6,2-1.5,2.4C361.6,373.5,359.3,373.6,355.6,373.5 M355.4,377.8
		c2.4,0.1,4.3,0,5.7-0.2c1.4-0.2,2.5-0.5,3.3-0.9c1.1-0.6,1.8-1.4,2.3-2.3c0.5-0.9,0.7-2.1,0.8-3.6c0-1.5-0.1-2.7-0.5-3.6
		c-0.4-0.9-1.1-1.7-2.1-2.4c-0.7-0.5-1.8-0.9-3.2-1.1c-1.4-0.3-3.3-0.4-5.7-0.5c-2.4-0.1-4.3,0-5.7,0.2c-1.4,0.2-2.5,0.5-3.3,0.9
		c-1,0.6-1.8,1.4-2.3,2.3c-0.4,0.9-0.7,2.1-0.8,3.6c-0.1,1.5,0.1,2.7,0.6,3.6c0.4,0.9,1.1,1.7,2.1,2.4c0.7,0.5,1.8,0.9,3.2,1.2
		C351.1,377.6,353,377.7,355.4,377.8 M367.3,347.9l-3.8,0l0,7.6l-18.7,0v4.2l22.6,0L367.3,347.9z M367.6,340.7l-10,0l0-7.2h-3.6
		l0,7.2l-5.3,0v-7.6H345l0,11.8l22.6,0V340.7z"/>
	<path class="st2" d="M170.9,85.5c-26.8-5.9-38.1,15.1-38.1,15.1C104.5,96.3,98,123.4,98,123.4l6,10.7l8.5,4.2l21.1-4.6l18.4-6.8
		l22.6-6.8l1.8-18.4C176.3,101.6,173.1,86,170.9,85.5"/>
	<path d="M112.5,138.6L112.5,138.6l-8.7-4.2l-6.1-10.9v-0.1c0.1-0.2,5.9-23.5,29.2-23.5c1.8,0,3.8,0.2,5.7,0.4
		c0.9-1.6,10-16.1,29.1-16.1c3.1,0,6.3,0.4,9.6,1.1c2.1,0.5,5.3,16.3,5.3,16.3l-1.8,18.6l-0.2,0.1l-22.6,6.8l-18.4,6.8L112.5,138.6z
		 M104.2,134l8.4,4.1l21-4.6l18.3-6.8l22.5-6.8l1.7-18.2c0,0-3.3-15.5-5.6-16c-3-0.6-5.9-0.9-8.8-0.9c-19.8,0-28.6,15.9-28.7,16
		l-0.1,0.2l-0.2,0c-2-0.3-4-0.5-5.8-0.5c-22.1,0-28.3,21.4-28.7,23L104.2,134z"/>
	<path class="st2" d="M186.6,85.3c26.5-4.3,36.1,15.3,36.1,15.3c29.9-5.9,34.8,22.8,34.8,22.8l-6,10.7l-8.5,4.2l-21-4.6l-18.4-6.8
		l-22.6-6.9l-1.8-18.4C179.1,101.7,183.8,85.8,186.6,85.3"/>
	<path d="M242.9,138.6l-21.1-4.7l-18.4-6.8l-22.8-6.9l-1.8-18.6c0,0,3.4-12.7,4.5-16c3.7-0.8,7.2-1.2,10.6-1.2
		c19.7,0,27.9,14.2,28.8,15.9c2.6-0.5,5.2-0.8,7.6-0.8c23,0,27.3,23.6,27.3,23.8l0,0.1l-6.1,10.9L242.9,138.6z M181.1,119.9
		l22.4,6.8l18.4,6.8l20.9,4.6l8.4-4.1l5.9-10.6c-0.3-1.5-4.9-23.3-26.8-23.3c-2.4,0-5,0.3-7.7,0.8l-0.2,0l-0.1-0.2
		c-0.1-0.2-8-15.8-28.5-15.8c-3.4,0-6.9,0.4-10.6,1.2c-1.8,0.4-4.1,15.5-4.1,15.5L181.1,119.9z"/>
	<polygon class="st0" points="180.4,29.3 180.5,24.4 177.8,24.4 175,24.4 175,29.3 169.7,29.4 169.8,34.1 175.1,34.1 175.3,45.3 
		177.7,45.5 177.7,45.6 177.7,45.6 177.8,45.6 180.2,45.3 180.4,34.1 185.7,34.1 185.7,29.4 	"/>
	<path d="M177.4,45.8L177.4,45.8l-2.4-0.3v-0.2l-0.2-11l-5.3,0.1l0-5.2l5.3-0.1l-0.1-4.9h6l0,4.9l5.3,0.1l-0.1,5.3l-5.3-0.1
		l-0.2,11.2l-2.4,0.2v0.1l-0.3,0L177.4,45.8z M177.7,45.3L177.7,45.3l2.2-0.2l0.2-11.3l5.3,0.1l0-4.3l-5.3-0.1l0-4.9h-5l0,4.9
		l-5.3,0.1l0.1,4.3l5.3-0.1l0.2,11.2L177.7,45.3z"/>
	<path class="st0" d="M177.7,69.3c-0.4,0-0.8,0.2-1.2,0.7c-1.6,1.6-3.3,5.7-3.2,12.2c0.1,9.1,2.9,14.2,4.4,14.5
		c1.5-0.2,4.4-5.3,4.5-14.5C182.3,73.2,179.1,69.4,177.7,69.3 M259.8,83.2l6.4,13.5l-2.7,17.3l-3.9-3.9l-5.1-3.7
		c0,0,10.9-25.3-16.3-29l-10.2-1.3c0,0-18.2-19.9-40.3-14.6c0,0,0.9,15.9-0.1,25.6c-1.2,11.5-3.7,21-9.8,21c-6.2,0-8.6-9.5-9.8-21
		c-1-9.7-0.1-25.6-0.1-25.6c-22.1-5.3-40.3,14.6-40.3,14.6l-10.3,1.3c-27.2,3.6-16.3,29-16.3,29l-5.2,3.7l-3.9,3.8l-2.7-17.3
		l6.4-13.5l9-5.3l10.9-6.1l12-11.8c0,0,41.9-8.8,43.3-8.9c1.3,0,7,1.5,7,1.5c0.4,0,5.3-2.2,6.6-2.1c1.3,0,39,6.9,39,6.9l16.6,14.5
		l10.9,6.1L259.8,83.2z"/>
	<path d="M263.7,114.6l-4.2-4.2l-5.3-3.8l0-0.2c0.1-0.1,4.8-11.3,0-19.7c-2.8-4.9-8.2-7.9-16.1-8.9l-10.3-1.4l0-0.1
		c-0.1-0.2-14.4-15.4-32.6-15.4c-2.5,0-4.9,0.3-7.3,0.8c0.1,1.9,0.8,16.4-0.1,25.4c-1.5,14.4-4.7,21.2-10,21.2
		c-6.9,0-9-11.3-10-21.2c-0.9-9-0.2-23.5-0.1-25.4c-2.4-0.5-4.8-0.8-7.3-0.8c-18.2,0-32.4,15.2-32.6,15.4l-0.1,0.1l-10.3,1.4
		c-7.9,1.1-13.3,4.1-16.1,8.9c-4.8,8.4-0.1,19.6,0,19.7l0.1,0.2l-5.3,3.9l-4.2,4.2L89,96.7l0-0.1l6.4-13.6l9.1-5.4l10.9-6.1l12-11.9
		l0.1,0c1.7-0.4,41.9-8.9,43.3-8.9c1.4,0,6.5,1.4,7,1.5c0.2,0,1-0.3,1.7-0.6c1.8-0.7,3.9-1.5,4.8-1.5c1.4,0,37.5,6.6,39.1,6.9l0.1,0
		l0.1,0l16.6,14.5l10.8,6.1l9.1,5.4l0,0.1l6.4,13.6v0.1L263.7,114.6z M254.7,106.4l5,3.6l3.6,3.5l2.6-16.8l-6.3-13.4l-8.9-5.3
		L239.8,72l-16.6-14.4c-13-2.4-37.9-6.9-38.9-6.9c-0.8,0-3.1,0.9-4.6,1.5c-1.3,0.5-1.7,0.7-1.9,0.7h-0.3v-0.1
		c-0.9-0.3-5.5-1.4-6.7-1.4c-1.1,0-28.7,5.8-43.2,8.9l-12,11.8l-10.9,6.1l-8.9,5.3l-6.3,13.4l2.6,16.8l3.5-3.5l5.1-3.7
		c-0.6-1.5-4.4-11.9,0.1-19.9c2.9-5,8.4-8.1,16.5-9.2l10.2-1.3c1.1-1.1,15.1-15.5,32.9-15.5c2.6,0,5.1,0.3,7.6,0.9l0.2,0v0.2
		c0,0.2-0.9,16,0.1,25.6c1.5,14.3,4.4,20.7,9.5,20.7c5,0,8.1-6.8,9.5-20.7c1-9.6,0.1-25.4,0.1-25.6l0-0.2l0.2-0.1
		c2.5-0.6,5.1-0.9,7.6-0.9C213,60.5,227,74.9,228,76l10.2,1.3c8.1,1.1,13.6,4.2,16.5,9.2C259.2,94.5,255.3,104.9,254.7,106.4"/>
	<path d="M177.7,97.3L177.7,97.3c-2.3-0.3-4.8-6.5-4.9-15c-0.1-6.7,1.7-10.9,3.3-12.6c0.6-0.6,1.1-0.9,1.6-0.9
		c1.8,0.1,5.1,4.1,4.9,13.4c-0.1,8.5-2.6,14.7-4.8,15c0,0-0.1,0-0.1,0C177.8,97.3,177.8,97.3,177.7,97.3 M177.8,69.4
		c-0.4,0-0.8,0.2-1.2,0.7c-1.6,1.6-3.3,5.7-3.2,12.2c0.1,9.1,2.9,14.3,4.4,14.5l0.1,0c1.5-0.2,4.3-5.3,4.4-14.5
		C182.3,73.2,179.1,69.4,177.8,69.4"/>
	<path class="st0" d="M116.4,67.6c-0.1-1.9,1.5-3.5,3.4-3.6c1.9,0,3.5,1.5,3.6,3.4c0,1.9-1.5,3.5-3.4,3.6
		C118,71.1,116.4,69.6,116.4,67.6"/>
	<path d="M119.9,71.3c-2.1,0-3.7-1.7-3.8-3.7c0-2.1,1.6-3.8,3.7-3.8c2.1,0,3.8,1.7,3.8,3.7c0,1-0.3,1.9-1,2.7
		C121.9,70.9,121,71.3,119.9,71.3L119.9,71.3z M119.9,64.3c-1.8,0-3.3,1.5-3.3,3.3c0,1.8,1.5,3.2,3.3,3.2v0.2l0-0.2
		c0.9,0,1.7-0.4,2.3-1c0.6-0.6,0.9-1.4,0.9-2.3C123.2,65.8,121.7,64.3,119.9,64.3"/>
	<path class="st0" d="M110.3,70.4c0-1.9,1.5-3.5,3.5-3.6c1.9,0,3.5,1.5,3.6,3.4c0,1.9-1.5,3.5-3.4,3.6
		C112,73.8,110.4,72.3,110.3,70.4"/>
	<path d="M113.9,74.1c-2.1,0-3.7-1.7-3.8-3.7c0-2.1,1.6-3.8,3.7-3.8c2.1,0,3.8,1.7,3.8,3.7c0,1-0.4,1.9-1.1,2.7
		C115.8,73.6,114.9,74.1,113.9,74.1L113.9,74.1z M113.9,67.1c-1.8,0-3.3,1.5-3.3,3.3c0,1.8,1.5,3.2,3.3,3.2v0.2l0-0.2
		c0.9,0,1.7-0.4,2.3-1c0.6-0.6,0.9-1.5,0.9-2.3C117.1,68.5,115.6,67.1,113.9,67.1"/>
	<path class="st0" d="M104.6,73.3c0-1.9,1.5-3.5,3.4-3.6c1.9,0,3.5,1.5,3.6,3.5c0,1.9-1.5,3.5-3.5,3.6
		C106.2,76.8,104.6,75.2,104.6,73.3"/>
	<path d="M108.1,77c-2,0-3.7-1.7-3.7-3.7c0-2.1,1.6-3.8,3.7-3.8c2.1,0,3.8,1.7,3.8,3.7c0,1-0.4,2-1.1,2.7
		C110,76.6,109.1,77,108.1,77L108.1,77z M108.1,70c-1.8,0-3.3,1.5-3.2,3.3c0,1.8,1.5,3.2,3.2,3.2v0.2l0.1-0.2c0.9,0,1.7-0.4,2.3-1
		c0.6-0.6,0.9-1.4,0.9-2.3C111.3,71.4,109.8,70,108.1,70"/>
	<path class="st0" d="M98.8,76.3c0-1.9,1.5-3.5,3.5-3.6c1.9,0,3.5,1.5,3.6,3.4c0,1.9-1.5,3.5-3.5,3.6
		C100.5,79.8,98.9,78.3,98.8,76.3"/>
	<path d="M102.3,80c-2,0-3.7-1.7-3.7-3.7c0-2.1,1.6-3.8,3.7-3.8c2.1,0,3.8,1.7,3.8,3.7C106.1,78.3,104.5,80,102.3,80L102.3,80z
		 M102.3,73c-1.8,0-3.3,1.5-3.2,3.3c0,1.8,1.5,3.2,3.2,3.2v0.2l0.1-0.2c1.8,0,3.2-1.5,3.2-3.3C105.6,74.5,104.1,73,102.3,73"/>
	<path class="st0" d="M94,80c0-1.9,1.5-3.5,3.5-3.6c1.9,0,3.5,1.5,3.6,3.4c0,1.9-1.5,3.5-3.5,3.6C95.6,83.5,94,82,94,80"/>
	<path d="M97.5,83.7c-2,0-3.7-1.7-3.7-3.7c0-2.1,1.6-3.8,3.7-3.8c2.1,0,3.8,1.7,3.8,3.7C101.3,82,99.6,83.7,97.5,83.7L97.5,83.7z
		 M97.5,76.7c-1.9,0-3.3,1.5-3.3,3.3c0,1.8,1.5,3.2,3.3,3.2v0.2l0.1-0.2c1.8,0,3.2-1.5,3.2-3.3C100.7,78.2,99.3,76.7,97.5,76.7"/>
	<path class="st0" d="M89.6,85.4c0-1.9,1.5-3.5,3.4-3.6c1.9,0,3.5,1.5,3.6,3.5c0,1.9-1.5,3.5-3.4,3.6C91.2,88.9,89.6,87.3,89.6,85.4
		"/>
	<path d="M93.1,89.1c-2,0-3.7-1.7-3.8-3.7c0-2.1,1.6-3.8,3.7-3.8c2.1,0,3.8,1.7,3.8,3.7C96.9,87.4,95.2,89.1,93.1,89.1L93.1,89.1z
		 M93.1,82.1c-1.8,0-3.3,1.5-3.3,3.3c0,1.8,1.5,3.2,3.3,3.2v0.3l0-0.3c1.8,0,3.2-1.5,3.2-3.3C96.3,83.5,94.8,82.1,93.1,82.1"/>
	<path class="st0" d="M86.7,92.2c0-1.9,1.5-3.5,3.4-3.6c1.9,0,3.5,1.5,3.6,3.5c0,1.9-1.5,3.5-3.5,3.6C88.3,95.7,86.8,94.1,86.7,92.2
		"/>
	<path d="M90.2,95.9c-2.1,0-3.7-1.7-3.8-3.7c0-2.1,1.6-3.8,3.7-3.8c2.1,0,3.8,1.7,3.8,3.7c0,1-0.3,1.9-1.1,2.7
		C92.2,95.4,91.3,95.9,90.2,95.9L90.2,95.9z M90.2,88.9c-1.8,0-3.3,1.5-3.3,3.3c0,1.8,1.5,3.2,3.3,3.2v0.2l0-0.2
		c0.9,0,1.7-0.4,2.3-1c0.6-0.6,0.9-1.5,0.9-2.3C93.5,90.3,92,88.9,90.2,88.9"/>
	<path class="st0" d="M85.1,99.1c0-1.9,1.5-3.5,3.4-3.6c1.9,0,3.6,1.5,3.6,3.5c0,1.9-1.5,3.5-3.5,3.6C86.8,102.6,85.2,101,85.1,99.1
		"/>
	<path d="M88.7,102.8c-2.1,0-3.7-1.6-3.8-3.7c0-2.1,1.6-3.8,3.7-3.8c2.1,0,3.8,1.6,3.8,3.7C92.4,101.1,90.8,102.8,88.7,102.8
		L88.7,102.8z M88.7,95.8c-1.9,0-3.3,1.5-3.3,3.3c0,1.8,1.5,3.2,3.3,3.2v0.2l0-0.2c1.8,0,3.2-1.5,3.2-3.3
		C91.9,97.2,90.4,95.8,88.7,95.8"/>
	<path class="st0" d="M85.9,106.4c0-1.9,1.5-3.5,3.4-3.6c1.9,0,3.5,1.5,3.6,3.4c0,1.9-1.5,3.5-3.4,3.6
		C87.5,109.9,85.9,108.3,85.9,106.4"/>
	<path d="M89.4,110.1c-2.1,0-3.7-1.7-3.8-3.7c0-2.1,1.6-3.8,3.7-3.8c2.1,0,3.8,1.7,3.8,3.7C93.1,108.4,91.5,110.1,89.4,110.1
		L89.4,110.1z M89.4,103.1c-1.8,0-3.3,1.5-3.3,3.3c0,1.8,1.5,3.2,3.3,3.2v0.2l0.1-0.2c1.8,0,3.2-1.5,3.2-3.3
		C92.6,104.5,91.1,103.1,89.4,103.1"/>
	<path class="st0" d="M237.3,67.2c0-1.9-1.5-3.5-3.5-3.6c-1.9,0-3.5,1.5-3.6,3.5c0,1.9,1.5,3.5,3.4,3.6
		C235.7,70.7,237.3,69.1,237.3,67.2"/>
	<path d="M233.8,70.9L233.8,70.9L233.8,70.9c-1,0-2-0.4-2.7-1.1c-0.7-0.7-1.1-1.7-1.1-2.7c0-2,1.7-3.7,3.7-3.7
		c2.1,0,3.8,1.7,3.8,3.8C237.5,69.2,235.9,70.9,233.8,70.9 M233.9,63.9c-1.8,0-3.3,1.4-3.3,3.2c0,0.9,0.3,1.7,0.9,2.3
		c0.6,0.6,1.4,1,2.3,1l0,0.3v-0.3c1.8,0,3.2-1.4,3.3-3.2C237.1,65.4,235.6,63.9,233.9,63.9"/>
	<path class="st0" d="M243.5,69.8c0-1.9-1.5-3.5-3.5-3.6c-1.9,0-3.5,1.5-3.6,3.4c0,1.9,1.5,3.5,3.5,3.6
		C241.9,73.3,243.5,71.8,243.5,69.8"/>
	<path d="M240,73.5L240,73.5L240,73.5c-1,0-2-0.4-2.7-1.1c-0.7-0.7-1.1-1.7-1.1-2.7c0-2,1.7-3.7,3.8-3.7c2.1,0,3.8,1.7,3.7,3.8
		C243.7,71.9,242,73.5,240,73.5 M240,66.5c-1.8,0-3.3,1.4-3.3,3.2c0,0.9,0.3,1.7,0.9,2.3c0.6,0.6,1.4,1,2.3,1l0,0.2v-0.2
		c1.8,0,3.2-1.5,3.2-3.2C243.3,68,241.8,66.6,240,66.5"/>
	<path class="st0" d="M249.5,73.1c0-1.9-1.5-3.5-3.4-3.6c-1.9,0-3.5,1.5-3.6,3.4c0,1.9,1.5,3.5,3.4,3.6
		C247.9,76.6,249.5,75,249.5,73.1"/>
	<path d="M246,76.8L246,76.8L246,76.8c-2.1,0-3.8-1.7-3.8-3.8c0-2,1.7-3.7,3.8-3.7c2.1,0,3.8,1.7,3.7,3.8
		C249.7,75.1,248,76.8,246,76.8 M246,69.8c-1.8,0-3.3,1.4-3.3,3.2c0,1.8,1.4,3.3,3.2,3.3l0,0.2v-0.2c1.8,0,3.2-1.5,3.3-3.2
		C249.3,71.3,247.8,69.8,246,69.8"/>
	<path class="st0" d="M255.3,76.6c0-1.9-1.5-3.5-3.5-3.6c-1.9,0-3.5,1.5-3.6,3.4c0,1.9,1.5,3.5,3.5,3.6
		C253.7,80,255.2,78.5,255.3,76.6"/>
	<path d="M251.8,80.3L251.8,80.3L251.8,80.3c-2.1,0-3.8-1.7-3.8-3.8c0-2,1.7-3.7,3.8-3.7c2.1,0,3.8,1.7,3.7,3.8
		C255.5,78.6,253.8,80.3,251.8,80.3 M251.8,73.3c-1.8,0-3.3,1.4-3.3,3.2c0,1.8,1.4,3.3,3.2,3.3l0,0.2v-0.2c1.8,0,3.2-1.4,3.2-3.2
		C255.1,74.8,253.6,73.3,251.8,73.3"/>
	<path class="st0" d="M261.3,80.1c0-1.9-1.5-3.5-3.4-3.6c-1.9,0-3.5,1.5-3.6,3.5c0,1.9,1.5,3.5,3.4,3.5
		C259.7,83.6,261.3,82.1,261.3,80.1"/>
	<path d="M257.8,83.8L257.8,83.8L257.8,83.8c-2.1,0-3.8-1.7-3.7-3.8c0-2,1.7-3.7,3.7-3.7c2.1,0,3.8,1.7,3.8,3.8
		C261.5,82.2,259.8,83.8,257.8,83.8 M257.8,76.8c-1.8,0-3.3,1.4-3.3,3.2c0,1.8,1.5,3.3,3.2,3.3l0,0.2v-0.2c1.8,0,3.2-1.4,3.3-3.2
		C261.1,78.3,259.6,76.9,257.8,76.8"/>
	<path class="st0" d="M266,85.6c0-1.9-1.5-3.5-3.4-3.6c-1.9,0-3.6,1.5-3.6,3.5c0,1.9,1.5,3.5,3.5,3.5C264.4,89.1,266,87.6,266,85.6"
		/>
	<path d="M262.5,89.3L262.5,89.3L262.5,89.3c-2.1,0-3.8-1.7-3.8-3.8c0-2.1,1.7-3.7,3.8-3.7c2.1,0,3.8,1.7,3.8,3.8
		C266.2,87.7,264.5,89.3,262.5,89.3 M262.5,82.3c-1.8,0-3.3,1.4-3.3,3.2c0,1.8,1.4,3.3,3.2,3.3l0,0.2v-0.2c1.8,0,3.2-1.4,3.2-3.2
		c0-0.9-0.3-1.7-0.9-2.3C264.2,82.7,263.4,82.3,262.5,82.3"/>
	<path class="st0" d="M268.7,92.2c0-1.9-1.5-3.5-3.4-3.6c-1.9,0-3.5,1.5-3.6,3.4c0,1.9,1.5,3.5,3.4,3.6
		C267.1,95.6,268.7,94.1,268.7,92.2"/>
	<path d="M265.2,95.9L265.2,95.9L265.2,95.9c-2.1,0-3.8-1.7-3.8-3.8c0-2,1.7-3.7,3.8-3.7c2.1,0,3.8,1.7,3.7,3.8
		C268.9,94.2,267.2,95.9,265.2,95.9 M265.2,88.9c-1.8,0-3.3,1.4-3.3,3.2c0,1.8,1.4,3.3,3.2,3.3l0,0.2v-0.2c1.8,0,3.2-1.4,3.3-3.2
		C268.5,90.4,267.1,88.9,265.2,88.9"/>
	<path class="st0" d="M270.3,99.1c0-1.9-1.5-3.5-3.4-3.6c-1.9,0-3.5,1.5-3.6,3.5c0,1.9,1.5,3.5,3.4,3.6
		C268.7,102.6,270.3,101,270.3,99.1"/>
	<path d="M266.8,102.8L266.8,102.8L266.8,102.8c-2.1,0-3.8-1.7-3.7-3.8c0-2,1.7-3.7,3.7-3.7c2.1,0,3.8,1.7,3.8,3.8
		C270.5,101.2,268.8,102.8,266.8,102.8 M266.9,95.8c-1.8,0-3.3,1.4-3.3,3.2c0,1.8,1.4,3.3,3.2,3.3l0.1,0.2v-0.2
		c1.8,0,3.2-1.5,3.3-3.2C270.1,97.3,268.6,95.8,266.9,95.8"/>
	<path class="st0" d="M269.6,106.4c0-1.9-1.5-3.5-3.4-3.6c-1.9,0-3.5,1.5-3.6,3.4c0,1.9,1.5,3.5,3.5,3.6
		C268,109.9,269.6,108.3,269.6,106.4"/>
	<path d="M266.1,110.1L266.1,110.1L266.1,110.1c-2.1,0-3.8-1.7-3.8-3.8c0-2.1,1.7-3.7,3.8-3.7c2.1,0,3.8,1.7,3.7,3.8
		C269.8,108.4,268.1,110.1,266.1,110.1 M266.1,103.1c-1.8,0-3.3,1.4-3.3,3.2c0,1.8,1.4,3.3,3.2,3.3l0.1,0.2v-0.2
		c1.8,0,3.2-1.4,3.3-3.2C269.4,104.6,267.9,103.1,266.1,103.1"/>
	<path class="st0" d="M287,108.4c-4.4-3-24.3,3.7-24.3,3.7c-8-14.6-18.9-11.5-18.9-11.5s3.6,2.5,5.8,6.3c9.5,16.4-3.7,23-3.7,23
		c-12.3,6.5-28-15.5-28-15.5c-4.3,3.3-13.5,4.7-13.5,4.7c-10.2,1-24.1-10.8-24.5-11.2c0,0-1.3,0.3-2.1,0.3c-0.8,0-2.1-0.4-2.1-0.4
		c-0.4,0.4-14.4,12.2-24.5,11.2c0,0-9.3-1.4-13.5-4.7c0,0-15.8,22-28,15.5c0,0-13.2-6.5-3.7-23c2.2-3.8,5.8-6.3,5.8-6.3
		s-10.9-3.1-18.9,11.5c0,0-20-6.7-24.3-3.7c-2.9,2,4.9,1.1,13.9,11.6c0,0,17.4,22.4,34.2,23.2l13.2,19.3c0,0,16.1-10.5,47.9-10.3
		c31.9-0.2,47.9,10.3,47.9,10.3l13.2-19.3c16.8-0.8,34.2-23.2,34.2-23.2C282.1,109.6,289.9,110.5,287,108.4"/>
	<path d="M225.7,162.8l-0.2-0.1c-0.2-0.1-16.1-10.2-46.8-10.2c-0.3,0-0.7,0-1,0h-0.2v0h-0.7c-30.7,0-46.6,10.1-46.8,10.2l-0.2,0.1
		l-0.1-0.2l-13.1-19.2c-16.7-0.9-34.1-23.1-34.3-23.3c-5.2-5.9-9.9-8.2-12.5-9.4c-1.4-0.7-2.1-1-2.2-1.5c0-0.4,0.4-0.7,0.7-1
		c0.8-0.6,2.1-0.8,3.9-0.8c6.8,0,18.8,3.9,20.4,4.4c8.1-14.4,19-11.5,19.1-11.5l0.5,0.2l-0.4,0.3c-0.1,0-3.6,2.5-5.7,6.2
		c-3.2,5.5-4.2,10.5-2.9,14.8c1.6,5.4,6.4,7.8,6.4,7.8c1.5,0.8,3.1,1.2,4.8,1.2c10.9,0,22.8-16.4,22.9-16.6l0.2-0.2l0.2,0.2
		c4.2,3.2,13.3,4.6,13.4,4.6c0.4,0,0.8,0.1,1.2,0.1c10,0,23-11.1,23.2-11.2l0.1-0.1l0.1,0c0,0,1.3,0.3,2,0.3c0.8,0,2-0.3,2-0.3
		l0.1,0l0.1,0.1c0.1,0.1,13.1,11.2,23.1,11.2c0.4,0,0.8,0,1.2-0.1c0.1,0,9.2-1.5,13.4-4.6l0.2-0.2l0.1,0.2
		c0.1,0.2,12,16.6,22.9,16.6c1.7,0,3.3-0.4,4.8-1.2c0.1,0,4.8-2.4,6.4-7.9c1.3-4.3,0.3-9.3-2.9-14.8c-2.2-3.7-5.7-6.2-5.7-6.2
		l-0.4-0.3l0.5-0.2c0.1,0,11-3,19.1,11.5c1.7-0.6,13.7-4.4,20.4-4.4c1.8,0,3.1,0.3,3.9,0.8c0.3,0.3,0.8,0.6,0.7,1
		c0,0.6-0.7,0.9-2.1,1.5c-2.6,1.2-7.3,3.5-12.5,9.4c-0.2,0.2-17.6,22.4-34.3,23.3L225.7,162.8z M178.7,152c29,0,44.9,9,46.8,10.2
		l13.1-19.2l0.1,0c16.5-0.7,33.9-22.9,34.1-23.1c5.2-6.1,10-8.3,12.6-9.6c1-0.5,1.8-0.9,1.9-1.1c0-0.1,0-0.2-0.5-0.5
		c-0.7-0.5-1.9-0.8-3.6-0.8c-7.1,0-20.3,4.4-20.5,4.5l-0.2,0.1l-0.1-0.2c-5.6-10.1-12.6-11.7-16.2-11.7c-0.8,0-1.5,0.1-1.9,0.1
		c1.1,0.8,3.7,3,5.5,6.1c3.3,5.6,4.3,10.7,2.9,15.2c-1.7,5.6-6.6,8.1-6.7,8.1c-1.6,0.8-3.2,1.2-5,1.2c-10.6,0-21.7-14.6-23.2-16.6
		c-4.3,3.2-13.1,4.5-13.4,4.6c-0.4,0-0.9,0.1-1.3,0.1c-9.8,0-22.1-10.2-23.4-11.2c-0.3,0.1-1.3,0.3-2,0.3c-0.7,0-1.7-0.2-2-0.3
		c-1.2,1-13.6,11.3-23.4,11.3c-0.4,0-0.9,0-1.3,0c-0.4-0.1-9.1-1.4-13.4-4.6c-1.5,2-12.6,16.6-23.2,16.6c-1.8,0-3.4-0.4-5-1.2
		c0,0-5-2.5-6.7-8.1c-1.3-4.4-0.3-9.5,2.9-15.2c1.8-3,4.4-5.3,5.4-6.1c-0.4-0.1-1-0.1-1.9-0.1c-3.7,0-10.6,1.5-16.2,11.7l-0.1,0.2
		l-0.2-0.1c-0.1,0-13.3-4.5-20.5-4.5c-1.7,0-2.9,0.3-3.6,0.8c-0.5,0.3-0.5,0.5-0.5,0.5c0,0.3,0.9,0.7,1.9,1.1
		c2.6,1.2,7.4,3.5,12.6,9.5c0.2,0.2,17.6,22.4,34.1,23.1h0.1l0.1,0.1l13,19.1c2-1.2,17.8-10.2,46.9-10.2h1h0.2H178.7z"/>
	<polygon class="st3" points="238,144.4 222.5,147.9 226.6,161.6 241.2,159.7 	"/>
	<path d="M226.4,161.8l-0.1-0.2l-4.2-13.9l16.1-3.6l3.3,15.8L226.4,161.8z M222.8,148.1l4,13.1l14.1-1.8l-3-14.7L222.8,148.1z"/>
	<polygon class="st3" points="117.7,144.4 133.5,147.9 129.3,161.7 114.5,159.8 	"/>
	<path d="M129.5,162l-15.3-1.9l3.3-16l16.3,3.6L129.5,162z M114.8,159.6l14.3,1.8l4.1-13.3l-15.3-3.4L114.8,159.6z"/>
	<polygon class="st3" points="177.8,151.7 190.4,139 177.7,128.1 165.1,139 177.7,151.7 177.8,151.7 	"/>
	<path d="M177.8,152l-0.2-0.2L164.7,139l13-11.3l13.1,11.3l-0.2,0.2L177.8,152z M165.5,139l12.3,12.3L190,139l-12.3-10.6L165.5,139z
		"/>
</g>
<g>
	<defs>
		<path id="SVGID_1_" d="M93.1,112.1c0,0-20-6.7-24.3-3.7c-2.9,2,4.9,1.2,13.9,11.6c0,0,17.4,22.4,34.2,23.2l13.2,19.3
			c0,0,16.1-10.5,47.9-10.3c31.8-0.2,47.9,10.3,47.9,10.3l13.2-19.3c16.8-0.8,34.3-23.2,34.3-23.2c9-10.4,16.8-9.6,13.9-11.6
			c-4.4-3-24.4,3.7-24.4,3.7c-8-14.6-18.9-11.5-18.9-11.5s3.6,2.5,5.8,6.3c9.6,16.4-3.6,22.9-3.6,22.9c-12.3,6.5-28-15.5-28-15.5
			c-4.3,3.3-13.5,4.7-13.5,4.7c-10.2,1-26.7-11-26.7-11s-16.4,12-26.6,11c0,0-9.2-1.4-13.5-4.7c0,0-15.8,22-28,15.5
			c0,0-13.2-6.5-3.7-22.9c2.2-3.8,5.8-6.3,5.8-6.3s-0.9-0.3-2.5-0.3C105.8,100.3,98.7,101.9,93.1,112.1"/>
	</defs>
	<clipPath id="SVGID_2_">
		<use xlink:href="#SVGID_1_"  style="overflow:visible;"/>
	</clipPath>
	<path class="st5" d="M105,154.1l-0.7-0.7c11.3-11.1,25.4-24.9,73.9-26.4c48-1.5,71,24.7,71.3,25l-0.8,0.6
		c-0.2-0.3-23-26.1-70.5-24.6C130.1,129.4,116.2,143.1,105,154.1"/>
</g>
<g>
	<path class="st0" d="M160.8,49c0.3-2.3,2.4-3.9,4.7-3.6c2.3,0.3,3.9,2.4,3.6,4.7c-0.3,2.3-2.4,3.9-4.7,3.6
		C162.1,53.4,160.5,51.3,160.8,49"/>
	<path d="M165,54c-0.2,0-0.4,0-0.6,0c-1.2-0.2-2.2-0.8-2.9-1.7c-0.7-0.9-1.1-2.1-0.9-3.3c0.3-2.4,2.5-4.2,4.9-3.8
		c1.2,0.2,2.2,0.8,2.9,1.7c0.7,0.9,1.1,2.1,0.9,3.3C169.1,52.3,167.2,54,165,54 M165,45.6c-2,0-3.7,1.5-3.9,3.4
		c-0.1,1,0.2,2.1,0.8,2.9c0.7,0.8,1.6,1.4,2.6,1.5c2.2,0.3,4.1-1.3,4.4-3.4c0.1-1.1-0.2-2.1-0.8-2.9c-0.7-0.8-1.6-1.4-2.6-1.5
		C165.3,45.6,165.1,45.6,165,45.6"/>
	<path class="st0" d="M177.7,40.3c-4.4,0.1-8.4,3.7-8.3,8c0.1,4.4,4,7.7,8.3,7.7v0c4.4,0.1,8.3-3.3,8.4-7.7
		C186.1,44,182.2,40.3,177.7,40.3"/>
	<path d="M177.8,56.3L177.8,56.3l-0.4,0c-4.5-0.1-8.3-3.6-8.3-7.9c0-2.2,0.9-4.2,2.6-5.8c1.6-1.5,3.8-2.4,6-2.5c2.4,0,4.7,1,6.3,2.6
		c1.6,1.6,2.4,3.6,2.3,5.7C186.3,52.7,182.4,56.3,177.8,56.3 M177.9,55.8L177.9,55.8c4.3,0,7.8-3.4,7.9-7.4c0-1.9-0.8-3.8-2.2-5.3
		c-1.5-1.6-3.7-2.5-5.9-2.5c-2.1,0-4.1,0.9-5.7,2.3c-1.6,1.5-2.4,3.4-2.4,5.5c0,4.1,3.7,7.4,8,7.4H177.9z"/>
	<path class="st0" d="M194.7,48.2c-0.3-2.3-2.4-3.9-4.7-3.6c-2.3,0.3-3.9,2.4-3.6,4.7c0.3,2.3,2.4,3.9,4.7,3.6
		C193.4,52.6,195,50.5,194.7,48.2"/>
	<path d="M190.5,53.2L190.5,53.2c-2.2,0-4.1-1.7-4.4-3.9c-0.2-1.2,0.2-2.3,0.9-3.3c0.7-0.9,1.8-1.5,2.9-1.7c2.5-0.3,4.7,1.4,5,3.8
		c0.2,1.2-0.2,2.3-0.9,3.3c-0.7,0.9-1.8,1.5-2.9,1.7C190.9,53.2,190.8,53.2,190.5,53.2 M190.6,44.8c-0.2,0-0.3,0-0.5,0
		c-1,0.1-2,0.7-2.6,1.5c-0.6,0.8-0.9,1.9-0.8,2.9c0.3,2,1.9,3.4,3.9,3.4c0.2,0,0.3,0,0.5,0c1-0.1,2-0.7,2.6-1.5
		c0.7-0.8,0.9-1.9,0.8-2.9C194.2,46.3,192.5,44.8,190.6,44.8"/>
	<path class="st0" d="M202.3,49.3c-0.3-2.3-2.4-3.9-4.7-3.6c-2.3,0.3-4,2.4-3.6,4.7c0.3,2.3,2.4,3.9,4.7,3.6
		C200.9,53.7,202.6,51.6,202.3,49.3"/>
	<path d="M198.1,54.3L198.1,54.3c-2.2,0-4.1-1.7-4.4-3.9c-0.1-1.2,0.2-2.3,0.9-3.3c0.7-0.9,1.8-1.5,2.9-1.7c2.5-0.3,4.7,1.4,5,3.8
		c0.2,1.2-0.2,2.3-0.9,3.3c-0.7,0.9-1.7,1.5-2.9,1.7C198.5,54.3,198.3,54.3,198.1,54.3 M198.1,45.9c-0.2,0-0.3,0-0.5,0
		c-1,0.1-2,0.7-2.6,1.5c-0.7,0.8-0.9,1.9-0.8,2.9c0.2,2,1.9,3.5,3.9,3.5c0.2,0,0.3,0,0.5,0c1-0.1,2-0.7,2.6-1.5
		c0.7-0.8,0.9-1.9,0.8-2.9C201.8,47.4,200.1,45.9,198.1,45.9"/>
	<path class="st0" d="M209.6,51c-0.3-2.3-2.4-3.9-4.7-3.6c-2.3,0.3-4,2.4-3.6,4.7c0.3,2.3,2.4,3.9,4.7,3.6
		C208.3,55.4,209.9,53.3,209.6,51"/>
	<path d="M205.4,56L205.4,56c-2.2,0-4.1-1.7-4.4-3.9c-0.1-1.2,0.2-2.3,0.9-3.3c0.7-0.9,1.8-1.5,2.9-1.7c2.5-0.3,4.7,1.4,5,3.8
		c0.2,1.2-0.2,2.3-0.9,3.3c-0.7,0.9-1.8,1.5-2.9,1.7C205.8,55.9,205.6,56,205.4,56 M205.5,47.6c-0.2,0-0.3,0-0.5,0
		c-1.1,0.1-2,0.7-2.6,1.5c-0.7,0.8-0.9,1.9-0.8,2.9c0.2,2,1.9,3.4,3.9,3.4c0.2,0,0.3,0,0.5,0c1.1-0.1,2-0.7,2.6-1.5
		c0.7-0.8,0.9-1.9,0.8-2.9C209.1,49,207.4,47.6,205.5,47.6"/>
	<path class="st0" d="M215.8,52.4c-0.3-2.3-2.4-3.9-4.7-3.6c-2.3,0.3-3.9,2.4-3.6,4.7c0.3,2.3,2.4,3.9,4.7,3.6
		C214.4,56.8,216.1,54.7,215.8,52.4"/>
	<path d="M211.6,57.4L211.6,57.4c-2.2,0-4.1-1.7-4.4-3.9c-0.1-1.2,0.2-2.3,0.9-3.3c0.7-0.9,1.8-1.5,2.9-1.7c2.5-0.3,4.7,1.5,5,3.8
		c0.1,1.2-0.2,2.4-0.9,3.3c-0.7,0.9-1.8,1.5-2.9,1.7C212,57.3,211.8,57.4,211.6,57.4 M211.6,49c-0.2,0-0.3,0-0.5,0
		c-1,0.1-2,0.7-2.6,1.5c-0.6,0.8-0.9,1.9-0.8,2.9c0.2,1.9,1.9,3.4,3.9,3.4c0.2,0,0.3,0,0.5,0c1-0.1,2-0.7,2.6-1.5
		c0.7-0.8,0.9-1.9,0.8-2.9C215.3,50.4,213.6,49,211.6,49"/>
	<path class="st0" d="M221.7,54.3c-0.3-2.3-2.4-3.9-4.7-3.6c-2.3,0.3-3.9,2.4-3.6,4.7c0.3,2.3,2.4,3.9,4.7,3.6
		C220.3,58.7,222,56.6,221.7,54.3"/>
	<path d="M217.5,59.2L217.5,59.2c-2.2,0-4.1-1.7-4.4-3.9c-0.2-1.2,0.2-2.3,0.9-3.3c0.7-0.9,1.7-1.5,2.9-1.7c2.5-0.3,4.7,1.4,5,3.8
		c0.2,1.2-0.2,2.3-0.9,3.3c-0.7,0.9-1.8,1.5-2.9,1.7C217.9,59.2,217.7,59.2,217.5,59.2 M217.5,50.9c-0.2,0-0.3,0-0.5,0
		c-1,0.2-2,0.7-2.6,1.5c-0.6,0.8-0.9,1.9-0.8,2.9c0.2,2,1.9,3.4,3.9,3.4c0.2,0,0.3,0,0.5,0c1.1-0.1,2-0.6,2.6-1.5
		c0.7-0.8,0.9-1.9,0.8-2.9C221.2,52.3,219.5,50.9,217.5,50.9"/>
	<path class="st0" d="M227.9,56.3c-0.3-2.3-2.4-3.9-4.7-3.6c-2.3,0.3-3.9,2.4-3.6,4.7c0.3,2.3,2.4,3.9,4.7,3.6
		C226.6,60.7,228.2,58.5,227.9,56.3"/>
	<path d="M223.8,61.2L223.8,61.2c-2.2,0-4.1-1.7-4.4-3.9c-0.2-1.2,0.2-2.3,0.9-3.3c0.7-0.9,1.8-1.5,2.9-1.7c2.5-0.3,4.7,1.5,5,3.8
		c0.1,1.2-0.2,2.3-0.9,3.3c-0.7,0.9-1.8,1.5-3,1.7C224.1,61.2,224,61.2,223.8,61.2 M223.8,52.8c-0.2,0-0.3,0-0.5,0
		c-1,0.1-2,0.7-2.6,1.5c-0.7,0.8-0.9,1.9-0.8,2.9c0.2,2,1.9,3.4,3.9,3.4c0.2,0,0.3,0,0.5,0c1.1-0.1,2-0.7,2.6-1.5
		c0.6-0.8,0.9-1.9,0.8-2.9C227.5,54.3,225.8,52.8,223.8,52.8"/>
	<path class="st0" d="M232.2,60.2c-0.3-2.3-2.4-3.9-4.7-3.6c-2.3,0.3-3.9,2.4-3.6,4.7c0.3,2.3,2.4,3.9,4.7,3.6
		C230.9,64.6,232.5,62.5,232.2,60.2"/>
	<path d="M228.1,65.2L228.1,65.2c-2.2,0-4.1-1.7-4.4-3.9c-0.1-1.2,0.2-2.3,0.9-3.3c0.7-0.9,1.7-1.5,2.9-1.7c2.5-0.3,4.7,1.4,4.9,3.8
		c0.2,1.2-0.2,2.4-0.9,3.3c-0.7,0.9-1.7,1.5-2.9,1.7C228.4,65.2,228.3,65.2,228.1,65.2 M228.1,56.8c-0.2,0-0.3,0-0.5,0
		c-1.1,0.1-2,0.7-2.6,1.5c-0.6,0.8-0.9,1.9-0.8,2.9c0.2,2,1.9,3.4,3.9,3.4h0c0.2,0,0.3,0,0.5,0c1-0.1,2-0.7,2.6-1.5
		c0.7-0.8,1-1.9,0.8-2.9C231.7,58.3,230,56.8,228.1,56.8"/>
	<path class="st0" d="M234.8,65.9c-0.3-2.3-2.4-3.9-4.7-3.6c-2.3,0.3-3.9,2.4-3.6,4.7c0.3,2.3,2.4,3.9,4.7,3.6
		C233.5,70.3,235.1,68.2,234.8,65.9"/>
	<path d="M230.6,70.9L230.6,70.9c-2.2,0-4.1-1.7-4.4-3.9c-0.2-1.2,0.2-2.3,0.9-3.3c0.7-0.9,1.8-1.5,2.9-1.7c2.5-0.3,4.7,1.4,5,3.8
		c0.1,1.2-0.2,2.4-0.9,3.3c-0.7,0.9-1.7,1.5-2.9,1.7C231,70.9,230.8,70.9,230.6,70.9 M230.6,62.5c-0.2,0-0.3,0-0.5,0
		c-1.1,0.1-2,0.7-2.6,1.5c-0.6,0.8-0.9,1.9-0.8,2.9c0.2,2,1.9,3.4,3.9,3.4c0.2,0,0.3,0,0.5,0c1-0.2,2-0.7,2.6-1.5
		c0.7-0.8,0.9-1.9,0.8-2.9C234.3,64,232.6,62.5,230.6,62.5"/>
	<path class="st0" d="M234.8,73.3c-0.3-2.3-2.4-3.9-4.7-3.6c-2.3,0.3-3.9,2.4-3.6,4.7c0.3,2.3,2.4,3.9,4.7,3.6
		C233.4,77.7,235.1,75.6,234.8,73.3"/>
	<path d="M230.6,78.3L230.6,78.3c-2.2,0-4.1-1.7-4.4-3.9c-0.1-1.2,0.2-2.3,0.9-3.3c0.7-0.9,1.7-1.5,2.9-1.7c2.4-0.3,4.7,1.4,5,3.8
		c0.2,1.2-0.2,2.3-0.9,3.3c-0.7,0.9-1.7,1.5-2.9,1.7C231,78.3,230.8,78.3,230.6,78.3 M230.6,69.9c-0.2,0-0.3,0-0.5,0
		c-1,0.1-2,0.7-2.6,1.5c-0.6,0.8-0.9,1.9-0.8,2.9c0.3,2,1.9,3.5,3.9,3.5c0.2,0,0.3,0,0.5,0c1.1-0.1,2-0.7,2.6-1.5
		c0.6-0.8,0.9-1.9,0.8-2.9C234.3,71.4,232.6,69.9,230.6,69.9"/>
	<path class="st0" d="M233.2,80.8c-0.3-2.3-2.4-3.9-4.7-3.6c-2.3,0.3-3.9,2.4-3.6,4.7c0.3,2.3,2.4,3.9,4.7,3.6
		C231.8,85.2,233.4,83.1,233.2,80.8"/>
	<path d="M229,85.7L229,85.7c-2.2,0-4.1-1.7-4.4-3.9c-0.1-1.2,0.2-2.3,0.9-3.3c0.7-0.9,1.7-1.5,2.9-1.7c2.5-0.3,4.7,1.4,5,3.8
		c0.1,1.2-0.2,2.3-0.9,3.3c-0.7,0.9-1.8,1.5-2.9,1.7C229.4,85.7,229.2,85.7,229,85.7 M229,77.3c-0.2,0-0.3,0-0.5,0
		c-1,0.1-2,0.7-2.6,1.5c-0.6,0.8-0.9,1.9-0.8,2.9c0.2,2,1.9,3.4,3.9,3.4c0.2,0,0.3,0,0.5,0c1-0.1,2-0.7,2.6-1.5
		c0.6-0.8,0.9-1.9,0.8-2.9C232.7,78.8,231,77.3,229,77.3"/>
	<path class="st0" d="M230.8,88.2c-0.3-2.3-2.4-3.9-4.7-3.6c-2.3,0.3-3.9,2.4-3.6,4.7c0.3,2.3,2.4,3.9,4.7,3.6
		C229.5,92.6,231.1,90.5,230.8,88.2"/>
	<path d="M226.7,93.2L226.7,93.2c-2.2,0-4.1-1.7-4.4-3.9c-0.3-2.4,1.4-4.7,3.8-5c2.4-0.3,4.7,1.4,4.9,3.8c0.2,1.2-0.2,2.3-0.9,3.3
		c-0.7,0.9-1.8,1.5-2.9,1.7C227,93.2,226.8,93.2,226.7,93.2 M226.7,84.8c-0.2,0-0.3,0-0.5,0c-2.2,0.3-3.7,2.3-3.4,4.4
		c0.3,2,1.9,3.4,3.9,3.4c0.2,0,0.3,0,0.5,0c1.1-0.2,2-0.7,2.6-1.5c0.6-0.8,0.9-1.9,0.8-2.9C230.3,86.3,228.6,84.8,226.7,84.8"/>
	<path class="st0" d="M229,95.4c-0.3-2.2-2.3-3.8-4.5-3.5c-2.2,0.3-3.8,2.3-3.5,4.5c0.3,2.2,2.3,3.8,4.5,3.5
		C227.7,99.6,229.3,97.6,229,95.4"/>
	<path d="M225,100.2c-2.1,0-4-1.6-4.3-3.8c-0.1-1.1,0.2-2.3,0.9-3.2c0.7-0.9,1.7-1.5,2.9-1.6c2.4-0.3,4.5,1.4,4.8,3.7
		c0.2,1.1-0.2,2.3-0.8,3.2c-0.7,0.9-1.7,1.5-2.9,1.6C225.3,100.2,225.2,100.2,225,100.2 M225,92.1c-0.2,0-0.3,0-0.5,0
		c-1,0.1-1.9,0.6-2.5,1.4c-0.6,0.8-0.9,1.8-0.8,2.8c0.3,2.1,2.1,3.6,4.3,3.3c1-0.1,1.9-0.7,2.5-1.5c0.6-0.8,0.9-1.8,0.8-2.8
		C228.5,93.5,226.9,92.1,225,92.1"/>
	<path class="st0" d="M226.9,103c-0.3-2.5-2.6-4.3-5.2-4c-2.5,0.3-4.3,2.6-4,5.2c0.3,2.5,2.6,4.3,5.2,4
		C225.5,107.9,227.2,105.5,226.9,103"/>
	<path d="M222.3,108.5c-2.4,0-4.5-1.8-4.8-4.2c-0.1-1.3,0.2-2.6,1-3.6c0.8-1,1.9-1.7,3.2-1.8c2.7-0.4,5.1,1.6,5.4,4.2
		c0.2,1.3-0.2,2.6-0.9,3.6c-0.8,1-1.9,1.7-3.2,1.9C222.8,108.4,222.6,108.5,222.3,108.5 M222.4,99.2c-0.2,0-0.4,0-0.6,0
		c-1.2,0.1-2.2,0.7-2.9,1.7c-0.7,0.9-1,2.1-0.9,3.2c0.3,2.4,2.5,4.1,4.9,3.8c1.2-0.2,2.2-0.7,2.9-1.7c0.7-0.9,1-2.1,0.9-3.2
		C226.4,100.9,224.6,99.2,222.4,99.2"/>
	<path class="st0" d="M223.7,110.9c-0.3-2.5-2.6-4.3-5.2-4c-2.5,0.3-4.3,2.6-4,5.1c0.3,2.5,2.6,4.3,5.2,4
		C222.2,115.7,224,113.4,223.7,110.9"/>
	<path d="M219.1,116.3c-2.4,0-4.5-1.8-4.8-4.2c-0.2-1.3,0.2-2.5,1-3.6c0.8-1,2-1.7,3.2-1.8c2.7-0.3,5.1,1.6,5.4,4.2
		c0.2,1.3-0.2,2.5-1,3.6c-0.8,1-1.9,1.7-3.2,1.8C219.5,116.3,219.3,116.3,219.1,116.3 M219.1,107.1c-0.2,0-0.4,0-0.6,0
		c-1.2,0.1-2.2,0.7-2.9,1.7c-0.7,0.9-1,2.1-0.9,3.2c0.3,2.4,2.5,4.1,4.9,3.8c1.1-0.2,2.2-0.7,2.9-1.7c0.7-0.9,1-2.1,0.9-3.2
		C223.2,108.7,221.3,107.1,219.1,107.1"/>
	<path class="st0" d="M153.3,50.2c0.3-2.3,2.4-3.9,4.7-3.6c2.3,0.3,3.9,2.4,3.6,4.7c-0.3,2.3-2.4,3.9-4.7,3.6
		C154.6,54.6,153,52.5,153.3,50.2"/>
	<path d="M157.4,55.1c-0.2,0-0.4,0-0.6,0c-1.2-0.2-2.2-0.7-2.9-1.7c-0.7-0.9-1.1-2.1-0.9-3.3c0.3-2.4,2.5-4.2,5-3.8
		c1.2,0.2,2.2,0.8,2.9,1.7c0.7,0.9,1.1,2.1,0.9,3.3C161.5,53.5,159.7,55.1,157.4,55.1 M157.4,46.7c-2,0-3.7,1.5-3.9,3.5
		c-0.1,1.1,0.2,2.1,0.8,2.9c0.7,0.8,1.6,1.4,2.6,1.5c2.2,0.3,4.2-1.3,4.4-3.4c0.1-1.1-0.2-2.1-0.8-2.9c-0.7-0.8-1.6-1.4-2.6-1.5
		C157.7,46.7,157.6,46.7,157.4,46.7"/>
	<path class="st0" d="M145.9,51.8c0.3-2.3,2.4-3.9,4.7-3.6c2.3,0.3,3.9,2.4,3.6,4.7c-0.3,2.3-2.4,3.9-4.7,3.6
		C147.3,56.2,145.6,54.1,145.9,51.8"/>
	<path d="M150.1,56.8c-0.2,0-0.4,0-0.6,0c-1.2-0.2-2.2-0.8-2.9-1.7c-0.7-0.9-1.1-2.1-0.9-3.3c0.3-2.4,2.5-4.2,4.9-3.8
		c1.2,0.2,2.2,0.8,3,1.7c0.7,0.9,1,2.1,0.9,3.3C154.2,55.1,152.3,56.8,150.1,56.8 M150.1,48.4c-2,0-3.7,1.5-3.9,3.4
		c-0.1,1.1,0.2,2.1,0.8,2.9c0.7,0.8,1.6,1.4,2.6,1.5c2.2,0.3,4.2-1.3,4.4-3.4c0.1-1.1-0.2-2.1-0.8-2.9c-0.7-0.8-1.6-1.4-2.6-1.5
		C150.4,48.4,150.2,48.4,150.1,48.4"/>
	<path class="st0" d="M139.7,53.2c0.3-2.3,2.4-3.9,4.7-3.6c2.3,0.3,3.9,2.4,3.6,4.7c-0.3,2.3-2.4,3.9-4.7,3.6
		C141.1,57.6,139.4,55.5,139.7,53.2"/>
	<path d="M143.9,58.2c-0.2,0-0.4,0-0.6,0c-1.2-0.2-2.2-0.8-2.9-1.7c-0.7-0.9-1.1-2.1-0.9-3.3c0.3-2.4,2.5-4.2,5-3.8
		c1.2,0.2,2.2,0.8,2.9,1.7c0.7,0.9,1,2.1,0.9,3.3C148,56.5,146.1,58.2,143.9,58.2 M143.9,49.8c-2,0-3.7,1.5-3.9,3.4
		c-0.1,1.1,0.2,2.1,0.8,2.9c0.6,0.8,1.6,1.3,2.6,1.5c2.2,0.3,4.2-1.3,4.4-3.4c0.1-1.1-0.2-2.1-0.8-2.9c-0.7-0.8-1.6-1.4-2.6-1.5
		C144.2,49.8,144.1,49.8,143.9,49.8"/>
	<path class="st0" d="M133.8,55.1c0.3-2.3,2.4-3.9,4.7-3.6c2.3,0.3,3.9,2.4,3.6,4.7c-0.3,2.3-2.4,3.9-4.7,3.6
		C135.2,59.5,133.5,57.4,133.8,55.1"/>
	<path d="M138,60.1c-0.2,0-0.4,0-0.6,0c-1.2-0.2-2.2-0.7-2.9-1.7c-0.7-0.9-1.1-2.1-0.9-3.3c0.3-2.4,2.5-4.1,4.9-3.8
		c1.2,0.1,2.2,0.7,2.9,1.7c0.7,0.9,1.1,2.1,0.9,3.3C142.1,58.4,140.2,60.1,138,60.1 M138,51.7c-2,0-3.7,1.5-3.9,3.4
		c-0.1,1.1,0.2,2.1,0.8,2.9c0.7,0.8,1.6,1.3,2.6,1.5c2.2,0.3,4.1-1.3,4.4-3.4c0.1-1.1-0.2-2.1-0.8-2.9c-0.7-0.8-1.6-1.4-2.6-1.5
		C138.3,51.7,138.2,51.7,138,51.7"/>
	<path class="st0" d="M127.6,57.1c0.3-2.3,2.4-3.9,4.7-3.6c2.3,0.3,4,2.4,3.6,4.7c-0.3,2.3-2.4,3.9-4.7,3.6
		C128.9,61.5,127.3,59.4,127.6,57.1"/>
	<path d="M131.7,62c-0.2,0-0.4,0-0.6,0c-1.2-0.2-2.2-0.7-2.9-1.7c-0.7-0.9-1-2.1-0.9-3.3c0.3-2.4,2.5-4.2,5-3.8
		c1.2,0.2,2.2,0.7,2.9,1.7c0.7,0.9,1,2.1,0.9,3.3C135.9,60.4,134,62,131.7,62 M131.7,53.7c-2,0-3.7,1.5-3.9,3.4
		c-0.2,1.1,0.1,2.1,0.8,2.9c0.6,0.8,1.6,1.3,2.6,1.5c2.2,0.3,4.2-1.3,4.4-3.4c0.1-1.1-0.2-2.1-0.8-2.9c-0.6-0.8-1.6-1.4-2.6-1.5
		C132.1,53.7,131.9,53.7,131.7,53.7"/>
	<path class="st0" d="M122,61.6c0.3-2.3,2.4-3.9,4.7-3.6c2.3,0.3,3.9,2.4,3.6,4.7c-0.3,2.3-2.4,3.9-4.7,3.6
		C123.3,65.9,121.7,63.8,122,61.6"/>
	<path d="M126.2,66.5c-0.2,0-0.4,0-0.6,0c-1.2-0.2-2.2-0.8-2.9-1.7c-0.7-0.9-1-2.1-0.9-3.3c0.3-2.4,2.5-4.2,4.9-3.8
		c1.2,0.2,2.2,0.8,2.9,1.7c0.7,0.9,1.1,2.1,0.9,3.3C130.3,64.9,128.4,66.5,126.2,66.5 M126.2,58.1c-2,0-3.7,1.5-3.9,3.4
		c-0.1,1.1,0.2,2.1,0.8,2.9c0.7,0.8,1.6,1.4,2.6,1.5c2.2,0.3,4.1-1.3,4.4-3.4c0.1-1.1-0.2-2.1-0.8-2.9c-0.6-0.8-1.5-1.4-2.6-1.5
		C126.5,58.1,126.3,58.1,126.2,58.1"/>
	<path class="st0" d="M119.5,67c0.3-2.3,2.4-3.9,4.7-3.6c2.3,0.3,3.9,2.4,3.6,4.7c-0.3,2.3-2.4,3.9-4.7,3.6
		C120.8,71.4,119.2,69.3,119.5,67"/>
	<path d="M123.7,72c-0.2,0-0.4,0-0.6,0c-1.2-0.2-2.2-0.8-2.9-1.7c-0.7-0.9-1.1-2.1-0.9-3.3c0.3-2.4,2.5-4.1,4.9-3.8
		c1.2,0.2,2.2,0.7,2.9,1.7c0.7,0.9,1.1,2.1,0.9,3.3C127.8,70.3,125.9,72,123.7,72 M123.7,63.6c-2,0-3.7,1.5-3.9,3.4
		c-0.1,1.1,0.1,2.1,0.8,2.9c0.6,0.8,1.6,1.3,2.6,1.5c2.2,0.3,4.1-1.3,4.4-3.4c0.1-1.1-0.1-2.1-0.8-2.9c-0.6-0.8-1.6-1.4-2.6-1.5
		C124,63.6,123.8,63.6,123.7,63.6"/>
	<path class="st0" d="M119.4,74.4c0.3-2.3,2.4-3.9,4.7-3.6c2.3,0.3,3.9,2.4,3.6,4.7c-0.3,2.3-2.4,3.9-4.7,3.6
		C120.7,78.8,119.1,76.7,119.4,74.4"/>
	<path d="M123.6,79.4c-0.2,0-0.4,0-0.6,0c-1.2-0.2-2.2-0.8-3-1.7c-0.7-0.9-1-2.1-0.9-3.3c0.3-2.4,2.5-4.2,4.9-3.8
		c1.2,0.2,2.2,0.8,2.9,1.7c0.7,0.9,1.1,2.1,0.9,3.3C127.7,77.7,125.8,79.4,123.6,79.4 M123.5,71c-2,0-3.7,1.5-3.9,3.4
		c-0.1,1,0.2,2.1,0.8,2.9c0.7,0.8,1.6,1.4,2.6,1.5c2.2,0.3,4.1-1.3,4.4-3.4c0.1-1-0.2-2.1-0.8-2.9c-0.6-0.8-1.5-1.4-2.6-1.5
		C123.9,71,123.7,71,123.5,71"/>
	<path class="st0" d="M120.9,81.6c0.3-2.3,2.4-3.9,4.7-3.6c2.3,0.3,3.9,2.4,3.6,4.7c-0.3,2.3-2.4,3.9-4.7,3.6
		C122.2,86,120.6,83.9,120.9,81.6"/>
	<path d="M125.1,86.6c-0.2,0-0.4,0-0.6,0c-1.2-0.2-2.2-0.8-2.9-1.7c-0.7-0.9-1.1-2.1-0.9-3.3c0.3-2.4,2.5-4.2,5-3.8
		c1.2,0.2,2.2,0.8,2.9,1.7c0.7,0.9,1,2.1,0.9,3.3C129.2,84.9,127.3,86.6,125.1,86.6 M125,78.2c-2,0-3.7,1.5-3.9,3.4
		c-0.1,1.1,0.1,2.1,0.8,2.9c0.6,0.8,1.6,1.3,2.6,1.5c2.2,0.3,4.2-1.3,4.4-3.4c0.1-1.1-0.2-2.1-0.8-2.9c-0.7-0.8-1.6-1.4-2.6-1.5
		C125.4,78.2,125.2,78.2,125,78.2"/>
	<path class="st0" d="M123,88.8c0.3-2.3,2.4-3.9,4.7-3.6c2.3,0.3,3.9,2.4,3.6,4.7c-0.3,2.3-2.4,3.9-4.7,3.6
		C124.3,93.2,122.7,91.1,123,88.8"/>
	<path d="M127.1,93.8c-0.2,0-0.4,0-0.6,0c-1.2-0.2-2.2-0.8-2.9-1.7c-0.7-0.9-1.1-2.1-0.9-3.3c0.3-2.4,2.5-4.1,4.9-3.8
		c2.5,0.3,4.2,2.5,3.9,5C131.3,92.1,129.4,93.8,127.1,93.8 M127.1,85.4c-2,0-3.7,1.5-3.9,3.4c-0.2,1.1,0.1,2.1,0.8,2.9
		c0.6,0.8,1.6,1.4,2.6,1.5c2.2,0.3,4.2-1.3,4.4-3.4c0.3-2.2-1.3-4.2-3.4-4.4C127.5,85.4,127.3,85.4,127.1,85.4"/>
	<path class="st0" d="M126.1,95.8c0.3-2.2,2.3-3.8,4.5-3.5c2.2,0.3,3.8,2.3,3.5,4.5c-0.3,2.2-2.3,3.8-4.5,3.5
		C127.3,100,125.8,98,126.1,95.8"/>
	<path d="M130.1,100.6c-0.2,0-0.4,0-0.6,0c-1.1-0.2-2.2-0.7-2.8-1.6c-0.7-0.9-1-2.1-0.9-3.2c0.3-2.3,2.5-4,4.8-3.7
		c1.1,0.1,2.2,0.7,2.8,1.6c0.7,0.9,1,2,0.9,3.2C134.1,99,132.2,100.6,130.1,100.6 M130.1,92.5c-1.9,0-3.5,1.4-3.8,3.3
		c-0.1,1,0.2,2,0.8,2.8c0.6,0.8,1.5,1.3,2.5,1.4c2.1,0.3,4-1.2,4.3-3.3c0.1-1-0.2-2-0.8-2.8c-0.6-0.8-1.5-1.3-2.5-1.5
		C130.4,92.5,130.2,92.5,130.1,92.5"/>
	<path class="st0" d="M128.8,102.5c0.3-2.5,2.6-4.3,5.2-4c2.5,0.3,4.3,2.6,4,5.1c-0.3,2.5-2.6,4.3-5.2,4
		C130.2,107.4,128.4,105.1,128.8,102.5"/>
	<path d="M133.3,108c-0.2,0-0.4,0-0.6,0c-1.3-0.2-2.4-0.8-3.2-1.9c-0.8-1-1.1-2.3-1-3.6c0.3-2.6,2.7-4.5,5.4-4.2
		c1.3,0.2,2.4,0.8,3.2,1.8c0.8,1,1.1,2.3,1,3.6C137.8,106.1,135.8,108,133.3,108 M133.3,98.8c-2.2,0-4,1.6-4.3,3.8
		c-0.1,1.1,0.2,2.3,0.9,3.2c0.7,0.9,1.8,1.5,2.9,1.7c2.4,0.3,4.6-1.4,4.9-3.8c0.2-1.1-0.2-2.3-0.9-3.2c-0.7-0.9-1.8-1.5-2.9-1.7
		C133.7,98.8,133.5,98.8,133.3,98.8"/>
	<path class="st0" d="M131.8,110.9c0.3-2.5,2.6-4.3,5.2-4c2.5,0.3,4.3,2.6,4,5.2c-0.3,2.5-2.6,4.3-5.2,4
		C133.2,115.8,131.4,113.4,131.8,110.9"/>
	<path d="M136.3,116.4c-0.2,0-0.4,0-0.6,0c-1.3-0.2-2.4-0.8-3.2-1.9c-0.8-1-1.1-2.3-1-3.6c0.3-2.6,2.7-4.5,5.4-4.2
		c1.3,0.2,2.4,0.8,3.2,1.9c0.8,1,1.1,2.3,1,3.6C140.8,114.5,138.8,116.4,136.3,116.4 M136.3,107.2c-2.2,0-4,1.6-4.3,3.8
		c-0.1,1.2,0.2,2.3,0.9,3.2c0.7,0.9,1.7,1.5,2.9,1.7c2.4,0.3,4.6-1.4,4.9-3.8c0.2-1.1-0.2-2.3-0.9-3.2c-0.7-0.9-1.7-1.5-2.9-1.7
		C136.7,107.2,136.5,107.2,136.3,107.2"/>
</g>
<g>
	<defs>
		<path id="SVGID_3_" d="M-45.9,129c-7.9,1.3-15.6,12.1-14,22.1c1.7,10,5.2,17.8,8.5,21.7c3.3,3.9,7.1,3.6,9.5,3
			c2.3-0.6,13.8-5.9,13.8-5.9s17-9.4,19.6-10.9c2.6-1.5,8.8-5.4,10.7-7.3c1.8-1.9,5.8-7.8,7.6-9.7c1.8-1.9,4-0.2,4.3,0
			c0.2,0.2,23.6,24.8,23.9,25.1c0.7,0.7,3.7,0.8,5.9-1.1c2.1-1.9,2.2-4.4,1.7-5.2c-0.5-0.7-13.2-16-22.3-25.2
			c-8.2-8.4-16-9.1-18.3-9.4c-6.2-0.7-12-0.9-17.3-0.9C-32.4,125.3-45.9,129-45.9,129"/>
	</defs>
	<clipPath id="SVGID_4_">
		<use xlink:href="#SVGID_3_"  style="overflow:visible;"/>
	</clipPath>
	<path class="st6" d="M-40.8,169.5c-0.9,0-1.7-0.2-2.5-0.5c-1.9-0.8-3.4-2.7-4.6-5.6c-1.6-4.1-3.1-8.8-3.4-15.3
		c-0.2-3.1,0-19.1,17.1-30.5l0.6,0.8C-50.3,129.4-50.5,145-50.3,148c0.3,6.4,1.8,11,3.3,15c1,2.7,2.3,4.3,4.1,5.1
		c1.5,0.6,3.3,0.5,5.4-0.3L10.9,143l0.5,0.9l-48.4,24.8C-38.4,169.2-39.7,169.5-40.8,169.5"/>
</g>
<g>
	<defs>
		<path id="SVGID_5_" d="M338.3,123.8c-9.8,4.8-12.8,15.2-15.2,19.9c-2,3.8-4.4,6.8-7.9,11.6c-1.5,2-3.8,4.7-2.2,6.8
			c0.6,0.8,1.6,1.8,2.5,2.5c1.2,1,2.8,1.5,3,1.6c1.2,0.4,2.1,0.8,4-1.2c1.1-1.2,4-5,6.6-7.5c1.3-1.2,2.8,0.4,3.4,0.9
			c2.5,2.1,10.6,11.4,25.4,17.2c6.3,2.5,11.2,3.4,16.7,3.5c6.6,0.2,11.4-0.5,16.6-4c4.6-3,7.5-10.1,6.9-17.1
			c-0.6-5.9-3-11.7-7.7-18.4c-5.9-8.4-18-20.3-34.5-20.3C350.5,119.4,344.6,120.7,338.3,123.8"/>
	</defs>
	<clipPath id="SVGID_6_">
		<use xlink:href="#SVGID_5_"  style="overflow:visible;"/>
	</clipPath>
	<path class="st7" d="M374.6,171.2c-13.1,0-30.1-7.1-40.5-20.7c-12-15.9-1.7-24.1-1.6-24.2l0.6,0.8c-0.4,0.3-9.6,7.7,1.8,22.8
		c12.7,16.7,35.6,23.4,48.2,19c4.2-1.4,6.9-4.1,8.1-7.8c3.2-10.1-4.8-25.5-10.1-32.9l0.8-0.6c5.4,7.6,13.6,23.3,10.2,33.8
		c-1.3,4.1-4.2,6.9-8.7,8.5C380.9,170.8,377.8,171.2,374.6,171.2"/>
</g>
</svg>
